<?xml version="1.0" encoding="utf-8" standalone="no"?>
<!DOCTYPE svg PUBLIC "-//W3C//DTD SVG 1.1//EN"
  "http://www.w3.org/Graphics/SVG/1.1/DTD/svg11.dtd">
<!-- Created with matplotlib (https://matplotlib.org/) -->
<svg height="345.6pt" version="1.1" viewBox="0 0 460.8 345.6" width="460.8pt" xmlns="http://www.w3.org/2000/svg" xmlns:xlink="http://www.w3.org/1999/xlink">
 <defs>
  <style type="text/css">
*{stroke-linecap:butt;stroke-linejoin:round;}
  </style>
 </defs>
 <g id="figure_1">
  <g id="patch_1">
   <path d="M 0 345.6 
L 460.8 345.6 
L 460.8 0 
L 0 0 
z
" style="fill:#ffffff;"/>
  </g>
  <g id="axes_1">
   <g id="patch_2">
    <path d="M 57.6 307.584 
L 414.72 307.584 
L 414.72 41.472 
L 57.6 41.472 
z
" style="fill:#ffffff;"/>
   </g>
   <g id="PathCollection_1">
    <defs>
     <path d="M 0 3 
C 0.795609 3 1.55874 2.683901 2.12132 2.12132 
C 2.683901 1.55874 3 0.795609 3 0 
C 3 -0.795609 2.683901 -1.55874 2.12132 -2.12132 
C 1.55874 -2.683901 0.795609 -3 0 -3 
C -0.795609 -3 -1.55874 -2.683901 -2.12132 -2.12132 
C -2.683901 -1.55874 -3 -0.795609 -3 0 
C -3 0.795609 -2.683901 1.55874 -2.12132 2.12132 
C -1.55874 2.683901 -0.795609 3 0 3 
z
" id="mf0758a65d8" style="stroke:#1f77b4;"/>
    </defs>
    <g clip-path="url(#p7f613f7ac4)">
     <use style="fill:#1f77b4;stroke:#1f77b4;" x="75.992351" xlink:href="#mf0758a65d8" y="242.153539"/>
     <use style="fill:#1f77b4;stroke:#1f77b4;" x="82.666003" xlink:href="#mf0758a65d8" y="190.342334"/>
     <use style="fill:#1f77b4;stroke:#1f77b4;" x="89.339655" xlink:href="#mf0758a65d8" y="268.180139"/>
     <use style="fill:#1f77b4;stroke:#1f77b4;" x="96.013307" xlink:href="#mf0758a65d8" y="268.115821"/>
     <use style="fill:#1f77b4;stroke:#1f77b4;" x="102.686959" xlink:href="#mf0758a65d8" y="260.918416"/>
     <use style="fill:#1f77b4;stroke:#1f77b4;" x="109.360611" xlink:href="#mf0758a65d8" y="96.693434"/>
     <use style="fill:#1f77b4;stroke:#1f77b4;" x="116.034263" xlink:href="#mf0758a65d8" y="78.838148"/>
     <use style="fill:#1f77b4;stroke:#1f77b4;" x="122.707915" xlink:href="#mf0758a65d8" y="247.244304"/>
     <use style="fill:#1f77b4;stroke:#1f77b4;" x="129.381567" xlink:href="#mf0758a65d8" y="53.611361"/>
     <use style="fill:#1f77b4;stroke:#1f77b4;" x="136.055219" xlink:href="#mf0758a65d8" y="287.502246"/>
     <use style="fill:#1f77b4;stroke:#1f77b4;" x="142.728871" xlink:href="#mf0758a65d8" y="286.191413"/>
     <use style="fill:#1f77b4;stroke:#1f77b4;" x="149.402523" xlink:href="#mf0758a65d8" y="287.364475"/>
     <use style="fill:#1f77b4;stroke:#1f77b4;" x="156.076175" xlink:href="#mf0758a65d8" y="286.646396"/>
     <use style="fill:#1f77b4;stroke:#1f77b4;" x="162.749827" xlink:href="#mf0758a65d8" y="287.028246"/>
     <use style="fill:#1f77b4;stroke:#1f77b4;" x="169.423479" xlink:href="#mf0758a65d8" y="285.054944"/>
     <use style="fill:#1f77b4;stroke:#1f77b4;" x="176.097132" xlink:href="#mf0758a65d8" y="233.305813"/>
     <use style="fill:#1f77b4;stroke:#1f77b4;" x="182.770784" xlink:href="#mf0758a65d8" y="278.583845"/>
     <use style="fill:#1f77b4;stroke:#1f77b4;" x="189.444436" xlink:href="#mf0758a65d8" y="286.213422"/>
     <use style="fill:#1f77b4;stroke:#1f77b4;" x="196.118088" xlink:href="#mf0758a65d8" y="284.211327"/>
     <use style="fill:#1f77b4;stroke:#1f77b4;" x="202.79174" xlink:href="#mf0758a65d8" y="283.657462"/>
     <use style="fill:#1f77b4;stroke:#1f77b4;" x="209.465392" xlink:href="#mf0758a65d8" y="281.931124"/>
     <use style="fill:#1f77b4;stroke:#1f77b4;" x="216.139044" xlink:href="#mf0758a65d8" y="281.632823"/>
     <use style="fill:#1f77b4;stroke:#1f77b4;" x="222.812696" xlink:href="#mf0758a65d8" y="280.266913"/>
     <use style="fill:#1f77b4;stroke:#1f77b4;" x="229.486348" xlink:href="#mf0758a65d8" y="151.388067"/>
     <use style="fill:#1f77b4;stroke:#1f77b4;" x="236.16" xlink:href="#mf0758a65d8" y="278.270747"/>
     <use style="fill:#1f77b4;stroke:#1f77b4;" x="242.833652" xlink:href="#mf0758a65d8" y="287.140696"/>
     <use style="fill:#1f77b4;stroke:#1f77b4;" x="249.507304" xlink:href="#mf0758a65d8" y="284.889607"/>
     <use style="fill:#1f77b4;stroke:#1f77b4;" x="256.180956" xlink:href="#mf0758a65d8" y="287.203946"/>
     <use style="fill:#1f77b4;stroke:#1f77b4;" x="262.854608" xlink:href="#mf0758a65d8" y="288.923046"/>
     <use style="fill:#1f77b4;stroke:#1f77b4;" x="269.52826" xlink:href="#mf0758a65d8" y="284.941425"/>
     <use style="fill:#1f77b4;stroke:#1f77b4;" x="276.201912" xlink:href="#mf0758a65d8" y="288.058253"/>
     <use style="fill:#1f77b4;stroke:#1f77b4;" x="282.875564" xlink:href="#mf0758a65d8" y="285.606244"/>
     <use style="fill:#1f77b4;stroke:#1f77b4;" x="289.549216" xlink:href="#mf0758a65d8" y="286.624173"/>
     <use style="fill:#1f77b4;stroke:#1f77b4;" x="296.222868" xlink:href="#mf0758a65d8" y="286.66926"/>
     <use style="fill:#1f77b4;stroke:#1f77b4;" x="302.896521" xlink:href="#mf0758a65d8" y="281.89031"/>
     <use style="fill:#1f77b4;stroke:#1f77b4;" x="309.570173" xlink:href="#mf0758a65d8" y="283.459432"/>
     <use style="fill:#1f77b4;stroke:#1f77b4;" x="316.243825" xlink:href="#mf0758a65d8" y="283.935623"/>
     <use style="fill:#1f77b4;stroke:#1f77b4;" x="322.917477" xlink:href="#mf0758a65d8" y="288.055299"/>
     <use style="fill:#1f77b4;stroke:#1f77b4;" x="329.591129" xlink:href="#mf0758a65d8" y="287.591191"/>
     <use style="fill:#1f77b4;stroke:#1f77b4;" x="336.264781" xlink:href="#mf0758a65d8" y="284.152457"/>
     <use style="fill:#1f77b4;stroke:#1f77b4;" x="342.938433" xlink:href="#mf0758a65d8" y="287.272324"/>
     <use style="fill:#1f77b4;stroke:#1f77b4;" x="349.612085" xlink:href="#mf0758a65d8" y="287.86214"/>
     <use style="fill:#1f77b4;stroke:#1f77b4;" x="356.285737" xlink:href="#mf0758a65d8" y="285.636266"/>
     <use style="fill:#1f77b4;stroke:#1f77b4;" x="362.959389" xlink:href="#mf0758a65d8" y="288.491253"/>
     <use style="fill:#1f77b4;stroke:#1f77b4;" x="369.633041" xlink:href="#mf0758a65d8" y="288.148389"/>
     <use style="fill:#1f77b4;stroke:#1f77b4;" x="376.306693" xlink:href="#mf0758a65d8" y="283.078704"/>
     <use style="fill:#1f77b4;stroke:#1f77b4;" x="382.980345" xlink:href="#mf0758a65d8" y="285.392882"/>
     <use style="fill:#1f77b4;stroke:#1f77b4;" x="389.653997" xlink:href="#mf0758a65d8" y="288.61459"/>
     <use style="fill:#1f77b4;stroke:#1f77b4;" x="396.327649" xlink:href="#mf0758a65d8" y="285.83654"/>
    </g>
   </g>
   <g id="PathCollection_2">
    <defs>
     <path d="M 0 3 
C 0.795609 3 1.55874 2.683901 2.12132 2.12132 
C 2.683901 1.55874 3 0.795609 3 0 
C 3 -0.795609 2.683901 -1.55874 2.12132 -2.12132 
C 1.55874 -2.683901 0.795609 -3 0 -3 
C -0.795609 -3 -1.55874 -2.683901 -2.12132 -2.12132 
C -2.683901 -1.55874 -3 -0.795609 -3 0 
C -3 0.795609 -2.683901 1.55874 -2.12132 2.12132 
C -1.55874 2.683901 -0.795609 3 0 3 
z
" id="mc0c565991e" style="stroke:#ff7f0e;"/>
    </defs>
    <g clip-path="url(#p7f613f7ac4)">
     <use style="fill:#ff7f0e;stroke:#ff7f0e;" x="75.992351" xlink:href="#mc0c565991e" y="227.27303"/>
     <use style="fill:#ff7f0e;stroke:#ff7f0e;" x="82.666003" xlink:href="#mc0c565991e" y="282.862404"/>
     <use style="fill:#ff7f0e;stroke:#ff7f0e;" x="89.339655" xlink:href="#mc0c565991e" y="276.421381"/>
     <use style="fill:#ff7f0e;stroke:#ff7f0e;" x="96.013307" xlink:href="#mc0c565991e" y="273.414231"/>
     <use style="fill:#ff7f0e;stroke:#ff7f0e;" x="102.686959" xlink:href="#mc0c565991e" y="264.817476"/>
     <use style="fill:#ff7f0e;stroke:#ff7f0e;" x="109.360611" xlink:href="#mc0c565991e" y="262.563289"/>
     <use style="fill:#ff7f0e;stroke:#ff7f0e;" x="116.034263" xlink:href="#mc0c565991e" y="249.938356"/>
     <use style="fill:#ff7f0e;stroke:#ff7f0e;" x="122.707915" xlink:href="#mc0c565991e" y="238.921382"/>
     <use style="fill:#ff7f0e;stroke:#ff7f0e;" x="129.381567" xlink:href="#mc0c565991e" y="239.39362"/>
     <use style="fill:#ff7f0e;stroke:#ff7f0e;" x="136.055219" xlink:href="#mc0c565991e" y="293.311158"/>
     <use style="fill:#ff7f0e;stroke:#ff7f0e;" x="142.728871" xlink:href="#mc0c565991e" y="293.325584"/>
     <use style="fill:#ff7f0e;stroke:#ff7f0e;" x="149.402523" xlink:href="#mc0c565991e" y="293.322102"/>
     <use style="fill:#ff7f0e;stroke:#ff7f0e;" x="156.076175" xlink:href="#mc0c565991e" y="293.322376"/>
     <use style="fill:#ff7f0e;stroke:#ff7f0e;" x="162.749827" xlink:href="#mc0c565991e" y="293.3054"/>
     <use style="fill:#ff7f0e;stroke:#ff7f0e;" x="169.423479" xlink:href="#mc0c565991e" y="293.322392"/>
     <use style="fill:#ff7f0e;stroke:#ff7f0e;" x="176.097132" xlink:href="#mc0c565991e" y="291.925997"/>
     <use style="fill:#ff7f0e;stroke:#ff7f0e;" x="182.770784" xlink:href="#mc0c565991e" y="278.046595"/>
     <use style="fill:#ff7f0e;stroke:#ff7f0e;" x="189.444436" xlink:href="#mc0c565991e" y="290.856378"/>
     <use style="fill:#ff7f0e;stroke:#ff7f0e;" x="196.118088" xlink:href="#mc0c565991e" y="289.528408"/>
     <use style="fill:#ff7f0e;stroke:#ff7f0e;" x="202.79174" xlink:href="#mc0c565991e" y="288.184192"/>
     <use style="fill:#ff7f0e;stroke:#ff7f0e;" x="209.465392" xlink:href="#mc0c565991e" y="286.460813"/>
     <use style="fill:#ff7f0e;stroke:#ff7f0e;" x="216.139044" xlink:href="#mc0c565991e" y="285.213977"/>
     <use style="fill:#ff7f0e;stroke:#ff7f0e;" x="222.812696" xlink:href="#mc0c565991e" y="283.678937"/>
     <use style="fill:#ff7f0e;stroke:#ff7f0e;" x="229.486348" xlink:href="#mc0c565991e" y="282.172371"/>
     <use style="fill:#ff7f0e;stroke:#ff7f0e;" x="236.16" xlink:href="#mc0c565991e" y="280.915706"/>
     <use style="fill:#ff7f0e;stroke:#ff7f0e;" x="242.833652" xlink:href="#mc0c565991e" y="293.303066"/>
     <use style="fill:#ff7f0e;stroke:#ff7f0e;" x="249.507304" xlink:href="#mc0c565991e" y="293.322523"/>
     <use style="fill:#ff7f0e;stroke:#ff7f0e;" x="256.180956" xlink:href="#mc0c565991e" y="293.324816"/>
     <use style="fill:#ff7f0e;stroke:#ff7f0e;" x="262.854608" xlink:href="#mc0c565991e" y="293.326575"/>
     <use style="fill:#ff7f0e;stroke:#ff7f0e;" x="269.52826" xlink:href="#mc0c565991e" y="293.316644"/>
     <use style="fill:#ff7f0e;stroke:#ff7f0e;" x="276.201912" xlink:href="#mc0c565991e" y="293.316786"/>
     <use style="fill:#ff7f0e;stroke:#ff7f0e;" x="282.875564" xlink:href="#mc0c565991e" y="293.327765"/>
     <use style="fill:#ff7f0e;stroke:#ff7f0e;" x="289.549216" xlink:href="#mc0c565991e" y="293.327898"/>
     <use style="fill:#ff7f0e;stroke:#ff7f0e;" x="296.222868" xlink:href="#mc0c565991e" y="293.325492"/>
     <use style="fill:#ff7f0e;stroke:#ff7f0e;" x="302.896521" xlink:href="#mc0c565991e" y="293.324567"/>
     <use style="fill:#ff7f0e;stroke:#ff7f0e;" x="309.570173" xlink:href="#mc0c565991e" y="293.317898"/>
     <use style="fill:#ff7f0e;stroke:#ff7f0e;" x="316.243825" xlink:href="#mc0c565991e" y="293.32087"/>
     <use style="fill:#ff7f0e;stroke:#ff7f0e;" x="322.917477" xlink:href="#mc0c565991e" y="293.312201"/>
     <use style="fill:#ff7f0e;stroke:#ff7f0e;" x="329.591129" xlink:href="#mc0c565991e" y="293.317993"/>
     <use style="fill:#ff7f0e;stroke:#ff7f0e;" x="336.264781" xlink:href="#mc0c565991e" y="293.323217"/>
     <use style="fill:#ff7f0e;stroke:#ff7f0e;" x="342.938433" xlink:href="#mc0c565991e" y="293.327605"/>
     <use style="fill:#ff7f0e;stroke:#ff7f0e;" x="349.612085" xlink:href="#mc0c565991e" y="293.327231"/>
     <use style="fill:#ff7f0e;stroke:#ff7f0e;" x="356.285737" xlink:href="#mc0c565991e" y="293.322999"/>
     <use style="fill:#ff7f0e;stroke:#ff7f0e;" x="362.959389" xlink:href="#mc0c565991e" y="293.326988"/>
     <use style="fill:#ff7f0e;stroke:#ff7f0e;" x="369.633041" xlink:href="#mc0c565991e" y="293.328512"/>
     <use style="fill:#ff7f0e;stroke:#ff7f0e;" x="376.306693" xlink:href="#mc0c565991e" y="293.315546"/>
     <use style="fill:#ff7f0e;stroke:#ff7f0e;" x="382.980345" xlink:href="#mc0c565991e" y="293.315855"/>
     <use style="fill:#ff7f0e;stroke:#ff7f0e;" x="389.653997" xlink:href="#mc0c565991e" y="293.326891"/>
     <use style="fill:#ff7f0e;stroke:#ff7f0e;" x="396.327649" xlink:href="#mc0c565991e" y="293.322853"/>
    </g>
   </g>
   <g id="PathCollection_3">
    <defs>
     <path d="M 0 3 
C 0.795609 3 1.55874 2.683901 2.12132 2.12132 
C 2.683901 1.55874 3 0.795609 3 0 
C 3 -0.795609 2.683901 -1.55874 2.12132 -2.12132 
C 1.55874 -2.683901 0.795609 -3 0 -3 
C -0.795609 -3 -1.55874 -2.683901 -2.12132 -2.12132 
C -2.683901 -1.55874 -3 -0.795609 -3 0 
C -3 0.795609 -2.683901 1.55874 -2.12132 2.12132 
C -1.55874 2.683901 -0.795609 3 0 3 
z
" id="m4d4098844c" style="stroke:#2ca02c;"/>
    </defs>
    <g clip-path="url(#p7f613f7ac4)">
     <use style="fill:#2ca02c;stroke:#2ca02c;" x="75.992351" xlink:href="#m4d4098844c" y="253.014365"/>
     <use style="fill:#2ca02c;stroke:#2ca02c;" x="82.666003" xlink:href="#m4d4098844c" y="286.952388"/>
     <use style="fill:#2ca02c;stroke:#2ca02c;" x="89.339655" xlink:href="#m4d4098844c" y="282.734195"/>
     <use style="fill:#2ca02c;stroke:#2ca02c;" x="96.013307" xlink:href="#m4d4098844c" y="281.300921"/>
     <use style="fill:#2ca02c;stroke:#2ca02c;" x="102.686959" xlink:href="#m4d4098844c" y="276.482067"/>
     <use style="fill:#2ca02c;stroke:#2ca02c;" x="109.360611" xlink:href="#m4d4098844c" y="274.255338"/>
     <use style="fill:#2ca02c;stroke:#2ca02c;" x="116.034263" xlink:href="#m4d4098844c" y="266.855256"/>
     <use style="fill:#2ca02c;stroke:#2ca02c;" x="122.707915" xlink:href="#m4d4098844c" y="260.454459"/>
     <use style="fill:#2ca02c;stroke:#2ca02c;" x="129.381567" xlink:href="#m4d4098844c" y="260.174321"/>
     <use style="fill:#2ca02c;stroke:#2ca02c;" x="136.055219" xlink:href="#m4d4098844c" y="293.326138"/>
     <use style="fill:#2ca02c;stroke:#2ca02c;" x="142.728871" xlink:href="#m4d4098844c" y="293.255136"/>
     <use style="fill:#2ca02c;stroke:#2ca02c;" x="149.402523" xlink:href="#m4d4098844c" y="293.274047"/>
     <use style="fill:#2ca02c;stroke:#2ca02c;" x="156.076175" xlink:href="#m4d4098844c" y="293.311112"/>
     <use style="fill:#2ca02c;stroke:#2ca02c;" x="162.749827" xlink:href="#m4d4098844c" y="293.272816"/>
     <use style="fill:#2ca02c;stroke:#2ca02c;" x="169.423479" xlink:href="#m4d4098844c" y="293.230906"/>
     <use style="fill:#2ca02c;stroke:#2ca02c;" x="176.097132" xlink:href="#m4d4098844c" y="292.346235"/>
     <use style="fill:#2ca02c;stroke:#2ca02c;" x="182.770784" xlink:href="#m4d4098844c" y="283.965966"/>
     <use style="fill:#2ca02c;stroke:#2ca02c;" x="189.444436" xlink:href="#m4d4098844c" y="291.689344"/>
     <use style="fill:#2ca02c;stroke:#2ca02c;" x="196.118088" xlink:href="#m4d4098844c" y="290.857164"/>
     <use style="fill:#2ca02c;stroke:#2ca02c;" x="202.79174" xlink:href="#m4d4098844c" y="289.719488"/>
     <use style="fill:#2ca02c;stroke:#2ca02c;" x="209.465392" xlink:href="#m4d4098844c" y="288.979725"/>
     <use style="fill:#2ca02c;stroke:#2ca02c;" x="216.139044" xlink:href="#m4d4098844c" y="288.117245"/>
     <use style="fill:#2ca02c;stroke:#2ca02c;" x="222.812696" xlink:href="#m4d4098844c" y="286.85137"/>
     <use style="fill:#2ca02c;stroke:#2ca02c;" x="229.486348" xlink:href="#m4d4098844c" y="285.975594"/>
     <use style="fill:#2ca02c;stroke:#2ca02c;" x="236.16" xlink:href="#m4d4098844c" y="284.237609"/>
     <use style="fill:#2ca02c;stroke:#2ca02c;" x="242.833652" xlink:href="#m4d4098844c" y="293.260357"/>
     <use style="fill:#2ca02c;stroke:#2ca02c;" x="249.507304" xlink:href="#m4d4098844c" y="293.207929"/>
     <use style="fill:#2ca02c;stroke:#2ca02c;" x="256.180956" xlink:href="#m4d4098844c" y="293.296248"/>
     <use style="fill:#2ca02c;stroke:#2ca02c;" x="262.854608" xlink:href="#m4d4098844c" y="293.282203"/>
     <use style="fill:#2ca02c;stroke:#2ca02c;" x="269.52826" xlink:href="#m4d4098844c" y="293.309242"/>
     <use style="fill:#2ca02c;stroke:#2ca02c;" x="276.201912" xlink:href="#m4d4098844c" y="293.097741"/>
     <use style="fill:#2ca02c;stroke:#2ca02c;" x="282.875564" xlink:href="#m4d4098844c" y="293.261551"/>
     <use style="fill:#2ca02c;stroke:#2ca02c;" x="289.549216" xlink:href="#m4d4098844c" y="293.28548"/>
     <use style="fill:#2ca02c;stroke:#2ca02c;" x="296.222868" xlink:href="#m4d4098844c" y="293.256704"/>
     <use style="fill:#2ca02c;stroke:#2ca02c;" x="302.896521" xlink:href="#m4d4098844c" y="293.158553"/>
     <use style="fill:#2ca02c;stroke:#2ca02c;" x="309.570173" xlink:href="#m4d4098844c" y="293.31144"/>
     <use style="fill:#2ca02c;stroke:#2ca02c;" x="316.243825" xlink:href="#m4d4098844c" y="293.308782"/>
     <use style="fill:#2ca02c;stroke:#2ca02c;" x="322.917477" xlink:href="#m4d4098844c" y="293.268488"/>
     <use style="fill:#2ca02c;stroke:#2ca02c;" x="329.591129" xlink:href="#m4d4098844c" y="293.282946"/>
     <use style="fill:#2ca02c;stroke:#2ca02c;" x="336.264781" xlink:href="#m4d4098844c" y="293.249209"/>
     <use style="fill:#2ca02c;stroke:#2ca02c;" x="342.938433" xlink:href="#m4d4098844c" y="293.297414"/>
     <use style="fill:#2ca02c;stroke:#2ca02c;" x="349.612085" xlink:href="#m4d4098844c" y="293.320856"/>
     <use style="fill:#2ca02c;stroke:#2ca02c;" x="356.285737" xlink:href="#m4d4098844c" y="293.259402"/>
     <use style="fill:#2ca02c;stroke:#2ca02c;" x="362.959389" xlink:href="#m4d4098844c" y="293.325419"/>
     <use style="fill:#2ca02c;stroke:#2ca02c;" x="369.633041" xlink:href="#m4d4098844c" y="293.323605"/>
     <use style="fill:#2ca02c;stroke:#2ca02c;" x="376.306693" xlink:href="#m4d4098844c" y="293.310153"/>
     <use style="fill:#2ca02c;stroke:#2ca02c;" x="382.980345" xlink:href="#m4d4098844c" y="293.306614"/>
     <use style="fill:#2ca02c;stroke:#2ca02c;" x="389.653997" xlink:href="#m4d4098844c" y="293.328515"/>
     <use style="fill:#2ca02c;stroke:#2ca02c;" x="396.327649" xlink:href="#m4d4098844c" y="293.311905"/>
    </g>
   </g>
   <g id="matplotlib.axis_1">
    <g id="xtick_1">
     <g id="line2d_1">
      <defs>
       <path d="M 0 0 
L 0 3.5 
" id="mc214bc2268" style="stroke:#000000;stroke-width:0.8;"/>
      </defs>
      <g>
       <use style="stroke:#000000;stroke-width:0.8;" x="75.992351" xlink:href="#mc214bc2268" y="307.584"/>
      </g>
     </g>
     <g id="text_1">
      <!-- barabasi-100000 -->
      <defs>
       <path d="M 48.6875 27.296875 
Q 48.6875 37.203125 44.609375 42.84375 
Q 40.53125 48.484375 33.40625 48.484375 
Q 26.265625 48.484375 22.1875 42.84375 
Q 18.109375 37.203125 18.109375 27.296875 
Q 18.109375 17.390625 22.1875 11.75 
Q 26.265625 6.109375 33.40625 6.109375 
Q 40.53125 6.109375 44.609375 11.75 
Q 48.6875 17.390625 48.6875 27.296875 
z
M 18.109375 46.390625 
Q 20.953125 51.265625 25.265625 53.625 
Q 29.59375 56 35.59375 56 
Q 45.5625 56 51.78125 48.09375 
Q 58.015625 40.1875 58.015625 27.296875 
Q 58.015625 14.40625 51.78125 6.484375 
Q 45.5625 -1.421875 35.59375 -1.421875 
Q 29.59375 -1.421875 25.265625 0.953125 
Q 20.953125 3.328125 18.109375 8.203125 
L 18.109375 0 
L 9.078125 0 
L 9.078125 75.984375 
L 18.109375 75.984375 
z
" id="DejaVuSans-98"/>
       <path d="M 34.28125 27.484375 
Q 23.390625 27.484375 19.1875 25 
Q 14.984375 22.515625 14.984375 16.5 
Q 14.984375 11.71875 18.140625 8.90625 
Q 21.296875 6.109375 26.703125 6.109375 
Q 34.1875 6.109375 38.703125 11.40625 
Q 43.21875 16.703125 43.21875 25.484375 
L 43.21875 27.484375 
z
M 52.203125 31.203125 
L 52.203125 0 
L 43.21875 0 
L 43.21875 8.296875 
Q 40.140625 3.328125 35.546875 0.953125 
Q 30.953125 -1.421875 24.3125 -1.421875 
Q 15.921875 -1.421875 10.953125 3.296875 
Q 6 8.015625 6 15.921875 
Q 6 25.140625 12.171875 29.828125 
Q 18.359375 34.515625 30.609375 34.515625 
L 43.21875 34.515625 
L 43.21875 35.40625 
Q 43.21875 41.609375 39.140625 45 
Q 35.0625 48.390625 27.6875 48.390625 
Q 23 48.390625 18.546875 47.265625 
Q 14.109375 46.140625 10.015625 43.890625 
L 10.015625 52.203125 
Q 14.9375 54.109375 19.578125 55.046875 
Q 24.21875 56 28.609375 56 
Q 40.484375 56 46.34375 49.84375 
Q 52.203125 43.703125 52.203125 31.203125 
z
" id="DejaVuSans-97"/>
       <path d="M 41.109375 46.296875 
Q 39.59375 47.171875 37.8125 47.578125 
Q 36.03125 48 33.890625 48 
Q 26.265625 48 22.1875 43.046875 
Q 18.109375 38.09375 18.109375 28.8125 
L 18.109375 0 
L 9.078125 0 
L 9.078125 54.6875 
L 18.109375 54.6875 
L 18.109375 46.1875 
Q 20.953125 51.171875 25.484375 53.578125 
Q 30.03125 56 36.53125 56 
Q 37.453125 56 38.578125 55.875 
Q 39.703125 55.765625 41.0625 55.515625 
z
" id="DejaVuSans-114"/>
       <path d="M 44.28125 53.078125 
L 44.28125 44.578125 
Q 40.484375 46.53125 36.375 47.5 
Q 32.28125 48.484375 27.875 48.484375 
Q 21.1875 48.484375 17.84375 46.4375 
Q 14.5 44.390625 14.5 40.28125 
Q 14.5 37.15625 16.890625 35.375 
Q 19.28125 33.59375 26.515625 31.984375 
L 29.59375 31.296875 
Q 39.15625 29.25 43.1875 25.515625 
Q 47.21875 21.78125 47.21875 15.09375 
Q 47.21875 7.46875 41.1875 3.015625 
Q 35.15625 -1.421875 24.609375 -1.421875 
Q 20.21875 -1.421875 15.453125 -0.5625 
Q 10.6875 0.296875 5.421875 2 
L 5.421875 11.28125 
Q 10.40625 8.6875 15.234375 7.390625 
Q 20.0625 6.109375 24.8125 6.109375 
Q 31.15625 6.109375 34.5625 8.28125 
Q 37.984375 10.453125 37.984375 14.40625 
Q 37.984375 18.0625 35.515625 20.015625 
Q 33.0625 21.96875 24.703125 23.78125 
L 21.578125 24.515625 
Q 13.234375 26.265625 9.515625 29.90625 
Q 5.8125 33.546875 5.8125 39.890625 
Q 5.8125 47.609375 11.28125 51.796875 
Q 16.75 56 26.8125 56 
Q 31.78125 56 36.171875 55.265625 
Q 40.578125 54.546875 44.28125 53.078125 
z
" id="DejaVuSans-115"/>
       <path d="M 9.421875 54.6875 
L 18.40625 54.6875 
L 18.40625 0 
L 9.421875 0 
z
M 9.421875 75.984375 
L 18.40625 75.984375 
L 18.40625 64.59375 
L 9.421875 64.59375 
z
" id="DejaVuSans-105"/>
       <path d="M 4.890625 31.390625 
L 31.203125 31.390625 
L 31.203125 23.390625 
L 4.890625 23.390625 
z
" id="DejaVuSans-45"/>
       <path d="M 12.40625 8.296875 
L 28.515625 8.296875 
L 28.515625 63.921875 
L 10.984375 60.40625 
L 10.984375 69.390625 
L 28.421875 72.90625 
L 38.28125 72.90625 
L 38.28125 8.296875 
L 54.390625 8.296875 
L 54.390625 0 
L 12.40625 0 
z
" id="DejaVuSans-49"/>
       <path d="M 31.78125 66.40625 
Q 24.171875 66.40625 20.328125 58.90625 
Q 16.5 51.421875 16.5 36.375 
Q 16.5 21.390625 20.328125 13.890625 
Q 24.171875 6.390625 31.78125 6.390625 
Q 39.453125 6.390625 43.28125 13.890625 
Q 47.125 21.390625 47.125 36.375 
Q 47.125 51.421875 43.28125 58.90625 
Q 39.453125 66.40625 31.78125 66.40625 
z
M 31.78125 74.21875 
Q 44.046875 74.21875 50.515625 64.515625 
Q 56.984375 54.828125 56.984375 36.375 
Q 56.984375 17.96875 50.515625 8.265625 
Q 44.046875 -1.421875 31.78125 -1.421875 
Q 19.53125 -1.421875 13.0625 8.265625 
Q 6.59375 17.96875 6.59375 36.375 
Q 6.59375 54.828125 13.0625 64.515625 
Q 19.53125 74.21875 31.78125 74.21875 
z
" id="DejaVuSans-48"/>
      </defs>
      <g transform="translate(33.511101 322.182437)scale(0.1 -0.1)">
       <use xlink:href="#DejaVuSans-98"/>
       <use x="63.476562" xlink:href="#DejaVuSans-97"/>
       <use x="124.755859" xlink:href="#DejaVuSans-114"/>
       <use x="165.869141" xlink:href="#DejaVuSans-97"/>
       <use x="227.148438" xlink:href="#DejaVuSans-98"/>
       <use x="290.625" xlink:href="#DejaVuSans-97"/>
       <use x="351.904297" xlink:href="#DejaVuSans-115"/>
       <use x="404.003906" xlink:href="#DejaVuSans-105"/>
       <use x="431.787109" xlink:href="#DejaVuSans-45"/>
       <use x="467.871094" xlink:href="#DejaVuSans-49"/>
       <use x="531.494141" xlink:href="#DejaVuSans-48"/>
       <use x="595.117188" xlink:href="#DejaVuSans-48"/>
       <use x="658.740234" xlink:href="#DejaVuSans-48"/>
       <use x="722.363281" xlink:href="#DejaVuSans-48"/>
       <use x="785.986328" xlink:href="#DejaVuSans-48"/>
      </g>
     </g>
    </g>
    <g id="xtick_2">
     <g id="line2d_2">
      <g>
       <use style="stroke:#000000;stroke-width:0.8;" x="82.666003" xlink:href="#mc214bc2268" y="307.584"/>
      </g>
     </g>
     <g id="text_2">
      <!-- barabasi-20000 -->
      <defs>
       <path d="M 19.1875 8.296875 
L 53.609375 8.296875 
L 53.609375 0 
L 7.328125 0 
L 7.328125 8.296875 
Q 12.9375 14.109375 22.625 23.890625 
Q 32.328125 33.6875 34.8125 36.53125 
Q 39.546875 41.84375 41.421875 45.53125 
Q 43.3125 49.21875 43.3125 52.78125 
Q 43.3125 58.59375 39.234375 62.25 
Q 35.15625 65.921875 28.609375 65.921875 
Q 23.96875 65.921875 18.8125 64.3125 
Q 13.671875 62.703125 7.8125 59.421875 
L 7.8125 69.390625 
Q 13.765625 71.78125 18.9375 73 
Q 24.125 74.21875 28.421875 74.21875 
Q 39.75 74.21875 46.484375 68.546875 
Q 53.21875 62.890625 53.21875 53.421875 
Q 53.21875 48.921875 51.53125 44.890625 
Q 49.859375 40.875 45.40625 35.40625 
Q 44.1875 33.984375 37.640625 27.21875 
Q 31.109375 20.453125 19.1875 8.296875 
z
" id="DejaVuSans-50"/>
      </defs>
      <g transform="translate(43.366003 322.182437)scale(0.1 -0.1)">
       <use xlink:href="#DejaVuSans-98"/>
       <use x="63.476562" xlink:href="#DejaVuSans-97"/>
       <use x="124.755859" xlink:href="#DejaVuSans-114"/>
       <use x="165.869141" xlink:href="#DejaVuSans-97"/>
       <use x="227.148438" xlink:href="#DejaVuSans-98"/>
       <use x="290.625" xlink:href="#DejaVuSans-97"/>
       <use x="351.904297" xlink:href="#DejaVuSans-115"/>
       <use x="404.003906" xlink:href="#DejaVuSans-105"/>
       <use x="431.787109" xlink:href="#DejaVuSans-45"/>
       <use x="467.871094" xlink:href="#DejaVuSans-50"/>
       <use x="531.494141" xlink:href="#DejaVuSans-48"/>
       <use x="595.117188" xlink:href="#DejaVuSans-48"/>
       <use x="658.740234" xlink:href="#DejaVuSans-48"/>
       <use x="722.363281" xlink:href="#DejaVuSans-48"/>
      </g>
     </g>
    </g>
    <g id="xtick_3">
     <g id="line2d_3">
      <g>
       <use style="stroke:#000000;stroke-width:0.8;" x="89.339655" xlink:href="#mc214bc2268" y="307.584"/>
      </g>
     </g>
     <g id="text_3">
      <!-- barabasi-30000 -->
      <defs>
       <path d="M 40.578125 39.3125 
Q 47.65625 37.796875 51.625 33 
Q 55.609375 28.21875 55.609375 21.1875 
Q 55.609375 10.40625 48.1875 4.484375 
Q 40.765625 -1.421875 27.09375 -1.421875 
Q 22.515625 -1.421875 17.65625 -0.515625 
Q 12.796875 0.390625 7.625 2.203125 
L 7.625 11.71875 
Q 11.71875 9.328125 16.59375 8.109375 
Q 21.484375 6.890625 26.8125 6.890625 
Q 36.078125 6.890625 40.9375 10.546875 
Q 45.796875 14.203125 45.796875 21.1875 
Q 45.796875 27.640625 41.28125 31.265625 
Q 36.765625 34.90625 28.71875 34.90625 
L 20.21875 34.90625 
L 20.21875 43.015625 
L 29.109375 43.015625 
Q 36.375 43.015625 40.234375 45.921875 
Q 44.09375 48.828125 44.09375 54.296875 
Q 44.09375 59.90625 40.109375 62.90625 
Q 36.140625 65.921875 28.71875 65.921875 
Q 24.65625 65.921875 20.015625 65.03125 
Q 15.375 64.15625 9.8125 62.3125 
L 9.8125 71.09375 
Q 15.4375 72.65625 20.34375 73.4375 
Q 25.25 74.21875 29.59375 74.21875 
Q 40.828125 74.21875 47.359375 69.109375 
Q 53.90625 64.015625 53.90625 55.328125 
Q 53.90625 49.265625 50.4375 45.09375 
Q 46.96875 40.921875 40.578125 39.3125 
z
" id="DejaVuSans-51"/>
      </defs>
      <g transform="translate(50.039655 322.182437)scale(0.1 -0.1)">
       <use xlink:href="#DejaVuSans-98"/>
       <use x="63.476562" xlink:href="#DejaVuSans-97"/>
       <use x="124.755859" xlink:href="#DejaVuSans-114"/>
       <use x="165.869141" xlink:href="#DejaVuSans-97"/>
       <use x="227.148438" xlink:href="#DejaVuSans-98"/>
       <use x="290.625" xlink:href="#DejaVuSans-97"/>
       <use x="351.904297" xlink:href="#DejaVuSans-115"/>
       <use x="404.003906" xlink:href="#DejaVuSans-105"/>
       <use x="431.787109" xlink:href="#DejaVuSans-45"/>
       <use x="467.871094" xlink:href="#DejaVuSans-51"/>
       <use x="531.494141" xlink:href="#DejaVuSans-48"/>
       <use x="595.117188" xlink:href="#DejaVuSans-48"/>
       <use x="658.740234" xlink:href="#DejaVuSans-48"/>
       <use x="722.363281" xlink:href="#DejaVuSans-48"/>
      </g>
     </g>
    </g>
    <g id="xtick_4">
     <g id="line2d_4">
      <g>
       <use style="stroke:#000000;stroke-width:0.8;" x="96.013307" xlink:href="#mc214bc2268" y="307.584"/>
      </g>
     </g>
     <g id="text_4">
      <!-- barabasi-40000 -->
      <defs>
       <path d="M 37.796875 64.3125 
L 12.890625 25.390625 
L 37.796875 25.390625 
z
M 35.203125 72.90625 
L 47.609375 72.90625 
L 47.609375 25.390625 
L 58.015625 25.390625 
L 58.015625 17.1875 
L 47.609375 17.1875 
L 47.609375 0 
L 37.796875 0 
L 37.796875 17.1875 
L 4.890625 17.1875 
L 4.890625 26.703125 
z
" id="DejaVuSans-52"/>
      </defs>
      <g transform="translate(56.713307 322.182437)scale(0.1 -0.1)">
       <use xlink:href="#DejaVuSans-98"/>
       <use x="63.476562" xlink:href="#DejaVuSans-97"/>
       <use x="124.755859" xlink:href="#DejaVuSans-114"/>
       <use x="165.869141" xlink:href="#DejaVuSans-97"/>
       <use x="227.148438" xlink:href="#DejaVuSans-98"/>
       <use x="290.625" xlink:href="#DejaVuSans-97"/>
       <use x="351.904297" xlink:href="#DejaVuSans-115"/>
       <use x="404.003906" xlink:href="#DejaVuSans-105"/>
       <use x="431.787109" xlink:href="#DejaVuSans-45"/>
       <use x="467.871094" xlink:href="#DejaVuSans-52"/>
       <use x="531.494141" xlink:href="#DejaVuSans-48"/>
       <use x="595.117188" xlink:href="#DejaVuSans-48"/>
       <use x="658.740234" xlink:href="#DejaVuSans-48"/>
       <use x="722.363281" xlink:href="#DejaVuSans-48"/>
      </g>
     </g>
    </g>
    <g id="xtick_5">
     <g id="line2d_5">
      <g>
       <use style="stroke:#000000;stroke-width:0.8;" x="102.686959" xlink:href="#mc214bc2268" y="307.584"/>
      </g>
     </g>
     <g id="text_5">
      <!-- barabasi-50000 -->
      <defs>
       <path d="M 10.796875 72.90625 
L 49.515625 72.90625 
L 49.515625 64.59375 
L 19.828125 64.59375 
L 19.828125 46.734375 
Q 21.96875 47.46875 24.109375 47.828125 
Q 26.265625 48.1875 28.421875 48.1875 
Q 40.625 48.1875 47.75 41.5 
Q 54.890625 34.8125 54.890625 23.390625 
Q 54.890625 11.625 47.5625 5.09375 
Q 40.234375 -1.421875 26.90625 -1.421875 
Q 22.3125 -1.421875 17.546875 -0.640625 
Q 12.796875 0.140625 7.71875 1.703125 
L 7.71875 11.625 
Q 12.109375 9.234375 16.796875 8.0625 
Q 21.484375 6.890625 26.703125 6.890625 
Q 35.15625 6.890625 40.078125 11.328125 
Q 45.015625 15.765625 45.015625 23.390625 
Q 45.015625 31 40.078125 35.4375 
Q 35.15625 39.890625 26.703125 39.890625 
Q 22.75 39.890625 18.8125 39.015625 
Q 14.890625 38.140625 10.796875 36.28125 
z
" id="DejaVuSans-53"/>
      </defs>
      <g transform="translate(63.386959 322.182437)scale(0.1 -0.1)">
       <use xlink:href="#DejaVuSans-98"/>
       <use x="63.476562" xlink:href="#DejaVuSans-97"/>
       <use x="124.755859" xlink:href="#DejaVuSans-114"/>
       <use x="165.869141" xlink:href="#DejaVuSans-97"/>
       <use x="227.148438" xlink:href="#DejaVuSans-98"/>
       <use x="290.625" xlink:href="#DejaVuSans-97"/>
       <use x="351.904297" xlink:href="#DejaVuSans-115"/>
       <use x="404.003906" xlink:href="#DejaVuSans-105"/>
       <use x="431.787109" xlink:href="#DejaVuSans-45"/>
       <use x="467.871094" xlink:href="#DejaVuSans-53"/>
       <use x="531.494141" xlink:href="#DejaVuSans-48"/>
       <use x="595.117188" xlink:href="#DejaVuSans-48"/>
       <use x="658.740234" xlink:href="#DejaVuSans-48"/>
       <use x="722.363281" xlink:href="#DejaVuSans-48"/>
      </g>
     </g>
    </g>
    <g id="xtick_6">
     <g id="line2d_6">
      <g>
       <use style="stroke:#000000;stroke-width:0.8;" x="109.360611" xlink:href="#mc214bc2268" y="307.584"/>
      </g>
     </g>
     <g id="text_6">
      <!-- barabasi-60000 -->
      <defs>
       <path d="M 33.015625 40.375 
Q 26.375 40.375 22.484375 35.828125 
Q 18.609375 31.296875 18.609375 23.390625 
Q 18.609375 15.53125 22.484375 10.953125 
Q 26.375 6.390625 33.015625 6.390625 
Q 39.65625 6.390625 43.53125 10.953125 
Q 47.40625 15.53125 47.40625 23.390625 
Q 47.40625 31.296875 43.53125 35.828125 
Q 39.65625 40.375 33.015625 40.375 
z
M 52.59375 71.296875 
L 52.59375 62.3125 
Q 48.875 64.0625 45.09375 64.984375 
Q 41.3125 65.921875 37.59375 65.921875 
Q 27.828125 65.921875 22.671875 59.328125 
Q 17.53125 52.734375 16.796875 39.40625 
Q 19.671875 43.65625 24.015625 45.921875 
Q 28.375 48.1875 33.59375 48.1875 
Q 44.578125 48.1875 50.953125 41.515625 
Q 57.328125 34.859375 57.328125 23.390625 
Q 57.328125 12.15625 50.6875 5.359375 
Q 44.046875 -1.421875 33.015625 -1.421875 
Q 20.359375 -1.421875 13.671875 8.265625 
Q 6.984375 17.96875 6.984375 36.375 
Q 6.984375 53.65625 15.1875 63.9375 
Q 23.390625 74.21875 37.203125 74.21875 
Q 40.921875 74.21875 44.703125 73.484375 
Q 48.484375 72.75 52.59375 71.296875 
z
" id="DejaVuSans-54"/>
      </defs>
      <g transform="translate(70.060611 322.182437)scale(0.1 -0.1)">
       <use xlink:href="#DejaVuSans-98"/>
       <use x="63.476562" xlink:href="#DejaVuSans-97"/>
       <use x="124.755859" xlink:href="#DejaVuSans-114"/>
       <use x="165.869141" xlink:href="#DejaVuSans-97"/>
       <use x="227.148438" xlink:href="#DejaVuSans-98"/>
       <use x="290.625" xlink:href="#DejaVuSans-97"/>
       <use x="351.904297" xlink:href="#DejaVuSans-115"/>
       <use x="404.003906" xlink:href="#DejaVuSans-105"/>
       <use x="431.787109" xlink:href="#DejaVuSans-45"/>
       <use x="467.871094" xlink:href="#DejaVuSans-54"/>
       <use x="531.494141" xlink:href="#DejaVuSans-48"/>
       <use x="595.117188" xlink:href="#DejaVuSans-48"/>
       <use x="658.740234" xlink:href="#DejaVuSans-48"/>
       <use x="722.363281" xlink:href="#DejaVuSans-48"/>
      </g>
     </g>
    </g>
    <g id="xtick_7">
     <g id="line2d_7">
      <g>
       <use style="stroke:#000000;stroke-width:0.8;" x="116.034263" xlink:href="#mc214bc2268" y="307.584"/>
      </g>
     </g>
     <g id="text_7">
      <!-- barabasi-70000 -->
      <defs>
       <path d="M 8.203125 72.90625 
L 55.078125 72.90625 
L 55.078125 68.703125 
L 28.609375 0 
L 18.3125 0 
L 43.21875 64.59375 
L 8.203125 64.59375 
z
" id="DejaVuSans-55"/>
      </defs>
      <g transform="translate(76.734263 322.182437)scale(0.1 -0.1)">
       <use xlink:href="#DejaVuSans-98"/>
       <use x="63.476562" xlink:href="#DejaVuSans-97"/>
       <use x="124.755859" xlink:href="#DejaVuSans-114"/>
       <use x="165.869141" xlink:href="#DejaVuSans-97"/>
       <use x="227.148438" xlink:href="#DejaVuSans-98"/>
       <use x="290.625" xlink:href="#DejaVuSans-97"/>
       <use x="351.904297" xlink:href="#DejaVuSans-115"/>
       <use x="404.003906" xlink:href="#DejaVuSans-105"/>
       <use x="431.787109" xlink:href="#DejaVuSans-45"/>
       <use x="467.871094" xlink:href="#DejaVuSans-55"/>
       <use x="531.494141" xlink:href="#DejaVuSans-48"/>
       <use x="595.117188" xlink:href="#DejaVuSans-48"/>
       <use x="658.740234" xlink:href="#DejaVuSans-48"/>
       <use x="722.363281" xlink:href="#DejaVuSans-48"/>
      </g>
     </g>
    </g>
    <g id="xtick_8">
     <g id="line2d_8">
      <g>
       <use style="stroke:#000000;stroke-width:0.8;" x="122.707915" xlink:href="#mc214bc2268" y="307.584"/>
      </g>
     </g>
     <g id="text_8">
      <!-- barabasi-80000 -->
      <defs>
       <path d="M 31.78125 34.625 
Q 24.75 34.625 20.71875 30.859375 
Q 16.703125 27.09375 16.703125 20.515625 
Q 16.703125 13.921875 20.71875 10.15625 
Q 24.75 6.390625 31.78125 6.390625 
Q 38.8125 6.390625 42.859375 10.171875 
Q 46.921875 13.96875 46.921875 20.515625 
Q 46.921875 27.09375 42.890625 30.859375 
Q 38.875 34.625 31.78125 34.625 
z
M 21.921875 38.8125 
Q 15.578125 40.375 12.03125 44.71875 
Q 8.5 49.078125 8.5 55.328125 
Q 8.5 64.0625 14.71875 69.140625 
Q 20.953125 74.21875 31.78125 74.21875 
Q 42.671875 74.21875 48.875 69.140625 
Q 55.078125 64.0625 55.078125 55.328125 
Q 55.078125 49.078125 51.53125 44.71875 
Q 48 40.375 41.703125 38.8125 
Q 48.828125 37.15625 52.796875 32.3125 
Q 56.78125 27.484375 56.78125 20.515625 
Q 56.78125 9.90625 50.3125 4.234375 
Q 43.84375 -1.421875 31.78125 -1.421875 
Q 19.734375 -1.421875 13.25 4.234375 
Q 6.78125 9.90625 6.78125 20.515625 
Q 6.78125 27.484375 10.78125 32.3125 
Q 14.796875 37.15625 21.921875 38.8125 
z
M 18.3125 54.390625 
Q 18.3125 48.734375 21.84375 45.5625 
Q 25.390625 42.390625 31.78125 42.390625 
Q 38.140625 42.390625 41.71875 45.5625 
Q 45.3125 48.734375 45.3125 54.390625 
Q 45.3125 60.0625 41.71875 63.234375 
Q 38.140625 66.40625 31.78125 66.40625 
Q 25.390625 66.40625 21.84375 63.234375 
Q 18.3125 60.0625 18.3125 54.390625 
z
" id="DejaVuSans-56"/>
      </defs>
      <g transform="translate(83.407915 322.182437)scale(0.1 -0.1)">
       <use xlink:href="#DejaVuSans-98"/>
       <use x="63.476562" xlink:href="#DejaVuSans-97"/>
       <use x="124.755859" xlink:href="#DejaVuSans-114"/>
       <use x="165.869141" xlink:href="#DejaVuSans-97"/>
       <use x="227.148438" xlink:href="#DejaVuSans-98"/>
       <use x="290.625" xlink:href="#DejaVuSans-97"/>
       <use x="351.904297" xlink:href="#DejaVuSans-115"/>
       <use x="404.003906" xlink:href="#DejaVuSans-105"/>
       <use x="431.787109" xlink:href="#DejaVuSans-45"/>
       <use x="467.871094" xlink:href="#DejaVuSans-56"/>
       <use x="531.494141" xlink:href="#DejaVuSans-48"/>
       <use x="595.117188" xlink:href="#DejaVuSans-48"/>
       <use x="658.740234" xlink:href="#DejaVuSans-48"/>
       <use x="722.363281" xlink:href="#DejaVuSans-48"/>
      </g>
     </g>
    </g>
    <g id="xtick_9">
     <g id="line2d_9">
      <g>
       <use style="stroke:#000000;stroke-width:0.8;" x="129.381567" xlink:href="#mc214bc2268" y="307.584"/>
      </g>
     </g>
     <g id="text_9">
      <!-- barabasi-90000 -->
      <defs>
       <path d="M 10.984375 1.515625 
L 10.984375 10.5 
Q 14.703125 8.734375 18.5 7.8125 
Q 22.3125 6.890625 25.984375 6.890625 
Q 35.75 6.890625 40.890625 13.453125 
Q 46.046875 20.015625 46.78125 33.40625 
Q 43.953125 29.203125 39.59375 26.953125 
Q 35.25 24.703125 29.984375 24.703125 
Q 19.046875 24.703125 12.671875 31.3125 
Q 6.296875 37.9375 6.296875 49.421875 
Q 6.296875 60.640625 12.9375 67.421875 
Q 19.578125 74.21875 30.609375 74.21875 
Q 43.265625 74.21875 49.921875 64.515625 
Q 56.59375 54.828125 56.59375 36.375 
Q 56.59375 19.140625 48.40625 8.859375 
Q 40.234375 -1.421875 26.421875 -1.421875 
Q 22.703125 -1.421875 18.890625 -0.6875 
Q 15.09375 0.046875 10.984375 1.515625 
z
M 30.609375 32.421875 
Q 37.25 32.421875 41.125 36.953125 
Q 45.015625 41.5 45.015625 49.421875 
Q 45.015625 57.28125 41.125 61.84375 
Q 37.25 66.40625 30.609375 66.40625 
Q 23.96875 66.40625 20.09375 61.84375 
Q 16.21875 57.28125 16.21875 49.421875 
Q 16.21875 41.5 20.09375 36.953125 
Q 23.96875 32.421875 30.609375 32.421875 
z
" id="DejaVuSans-57"/>
      </defs>
      <g transform="translate(90.081567 322.182437)scale(0.1 -0.1)">
       <use xlink:href="#DejaVuSans-98"/>
       <use x="63.476562" xlink:href="#DejaVuSans-97"/>
       <use x="124.755859" xlink:href="#DejaVuSans-114"/>
       <use x="165.869141" xlink:href="#DejaVuSans-97"/>
       <use x="227.148438" xlink:href="#DejaVuSans-98"/>
       <use x="290.625" xlink:href="#DejaVuSans-97"/>
       <use x="351.904297" xlink:href="#DejaVuSans-115"/>
       <use x="404.003906" xlink:href="#DejaVuSans-105"/>
       <use x="431.787109" xlink:href="#DejaVuSans-45"/>
       <use x="467.871094" xlink:href="#DejaVuSans-57"/>
       <use x="531.494141" xlink:href="#DejaVuSans-48"/>
       <use x="595.117188" xlink:href="#DejaVuSans-48"/>
       <use x="658.740234" xlink:href="#DejaVuSans-48"/>
       <use x="722.363281" xlink:href="#DejaVuSans-48"/>
      </g>
     </g>
    </g>
    <g id="xtick_10">
     <g id="line2d_10">
      <g>
       <use style="stroke:#000000;stroke-width:0.8;" x="136.055219" xlink:href="#mc214bc2268" y="307.584"/>
      </g>
     </g>
     <g id="text_10">
      <!-- bull -->
      <defs>
       <path d="M 8.5 21.578125 
L 8.5 54.6875 
L 17.484375 54.6875 
L 17.484375 21.921875 
Q 17.484375 14.15625 20.5 10.265625 
Q 23.53125 6.390625 29.59375 6.390625 
Q 36.859375 6.390625 41.078125 11.03125 
Q 45.3125 15.671875 45.3125 23.6875 
L 45.3125 54.6875 
L 54.296875 54.6875 
L 54.296875 0 
L 45.3125 0 
L 45.3125 8.40625 
Q 42.046875 3.421875 37.71875 1 
Q 33.40625 -1.421875 27.6875 -1.421875 
Q 18.265625 -1.421875 13.375 4.4375 
Q 8.5 10.296875 8.5 21.578125 
z
M 31.109375 56 
z
" id="DejaVuSans-117"/>
       <path d="M 9.421875 75.984375 
L 18.40625 75.984375 
L 18.40625 0 
L 9.421875 0 
z
" id="DejaVuSans-108"/>
      </defs>
      <g transform="translate(126.934125 322.182437)scale(0.1 -0.1)">
       <use xlink:href="#DejaVuSans-98"/>
       <use x="63.476562" xlink:href="#DejaVuSans-117"/>
       <use x="126.855469" xlink:href="#DejaVuSans-108"/>
       <use x="154.638672" xlink:href="#DejaVuSans-108"/>
      </g>
     </g>
    </g>
    <g id="xtick_11">
     <g id="line2d_11">
      <g>
       <use style="stroke:#000000;stroke-width:0.8;" x="142.728871" xlink:href="#mc214bc2268" y="307.584"/>
      </g>
     </g>
     <g id="text_11">
      <!-- chvatal -->
      <defs>
       <path d="M 48.78125 52.59375 
L 48.78125 44.1875 
Q 44.96875 46.296875 41.140625 47.34375 
Q 37.3125 48.390625 33.40625 48.390625 
Q 24.65625 48.390625 19.8125 42.84375 
Q 14.984375 37.3125 14.984375 27.296875 
Q 14.984375 17.28125 19.8125 11.734375 
Q 24.65625 6.203125 33.40625 6.203125 
Q 37.3125 6.203125 41.140625 7.25 
Q 44.96875 8.296875 48.78125 10.40625 
L 48.78125 2.09375 
Q 45.015625 0.34375 40.984375 -0.53125 
Q 36.96875 -1.421875 32.421875 -1.421875 
Q 20.0625 -1.421875 12.78125 6.34375 
Q 5.515625 14.109375 5.515625 27.296875 
Q 5.515625 40.671875 12.859375 48.328125 
Q 20.21875 56 33.015625 56 
Q 37.15625 56 41.109375 55.140625 
Q 45.0625 54.296875 48.78125 52.59375 
z
" id="DejaVuSans-99"/>
       <path d="M 54.890625 33.015625 
L 54.890625 0 
L 45.90625 0 
L 45.90625 32.71875 
Q 45.90625 40.484375 42.875 44.328125 
Q 39.84375 48.1875 33.796875 48.1875 
Q 26.515625 48.1875 22.3125 43.546875 
Q 18.109375 38.921875 18.109375 30.90625 
L 18.109375 0 
L 9.078125 0 
L 9.078125 75.984375 
L 18.109375 75.984375 
L 18.109375 46.1875 
Q 21.34375 51.125 25.703125 53.5625 
Q 30.078125 56 35.796875 56 
Q 45.21875 56 50.046875 50.171875 
Q 54.890625 44.34375 54.890625 33.015625 
z
" id="DejaVuSans-104"/>
       <path d="M 2.984375 54.6875 
L 12.5 54.6875 
L 29.59375 8.796875 
L 46.6875 54.6875 
L 56.203125 54.6875 
L 35.6875 0 
L 23.484375 0 
z
" id="DejaVuSans-118"/>
       <path d="M 18.3125 70.21875 
L 18.3125 54.6875 
L 36.8125 54.6875 
L 36.8125 47.703125 
L 18.3125 47.703125 
L 18.3125 18.015625 
Q 18.3125 11.328125 20.140625 9.421875 
Q 21.96875 7.515625 27.59375 7.515625 
L 36.8125 7.515625 
L 36.8125 0 
L 27.59375 0 
Q 17.1875 0 13.234375 3.875 
Q 9.28125 7.765625 9.28125 18.015625 
L 9.28125 47.703125 
L 2.6875 47.703125 
L 2.6875 54.6875 
L 9.28125 54.6875 
L 9.28125 70.21875 
z
" id="DejaVuSans-116"/>
      </defs>
      <g transform="translate(124.374184 322.182437)scale(0.1 -0.1)">
       <use xlink:href="#DejaVuSans-99"/>
       <use x="54.980469" xlink:href="#DejaVuSans-104"/>
       <use x="118.359375" xlink:href="#DejaVuSans-118"/>
       <use x="177.539062" xlink:href="#DejaVuSans-97"/>
       <use x="238.818359" xlink:href="#DejaVuSans-116"/>
       <use x="278.027344" xlink:href="#DejaVuSans-97"/>
       <use x="339.306641" xlink:href="#DejaVuSans-108"/>
      </g>
     </g>
    </g>
    <g id="xtick_12">
     <g id="line2d_12">
      <g>
       <use style="stroke:#000000;stroke-width:0.8;" x="149.402523" xlink:href="#mc214bc2268" y="307.584"/>
      </g>
     </g>
     <g id="text_12">
      <!-- coxeter -->
      <defs>
       <path d="M 30.609375 48.390625 
Q 23.390625 48.390625 19.1875 42.75 
Q 14.984375 37.109375 14.984375 27.296875 
Q 14.984375 17.484375 19.15625 11.84375 
Q 23.34375 6.203125 30.609375 6.203125 
Q 37.796875 6.203125 41.984375 11.859375 
Q 46.1875 17.53125 46.1875 27.296875 
Q 46.1875 37.015625 41.984375 42.703125 
Q 37.796875 48.390625 30.609375 48.390625 
z
M 30.609375 56 
Q 42.328125 56 49.015625 48.375 
Q 55.71875 40.765625 55.71875 27.296875 
Q 55.71875 13.875 49.015625 6.21875 
Q 42.328125 -1.421875 30.609375 -1.421875 
Q 18.84375 -1.421875 12.171875 6.21875 
Q 5.515625 13.875 5.515625 27.296875 
Q 5.515625 40.765625 12.171875 48.375 
Q 18.84375 56 30.609375 56 
z
" id="DejaVuSans-111"/>
       <path d="M 54.890625 54.6875 
L 35.109375 28.078125 
L 55.90625 0 
L 45.3125 0 
L 29.390625 21.484375 
L 13.484375 0 
L 2.875 0 
L 24.125 28.609375 
L 4.6875 54.6875 
L 15.28125 54.6875 
L 29.78125 35.203125 
L 44.28125 54.6875 
z
" id="DejaVuSans-120"/>
       <path d="M 56.203125 29.59375 
L 56.203125 25.203125 
L 14.890625 25.203125 
Q 15.484375 15.921875 20.484375 11.0625 
Q 25.484375 6.203125 34.421875 6.203125 
Q 39.59375 6.203125 44.453125 7.46875 
Q 49.3125 8.734375 54.109375 11.28125 
L 54.109375 2.78125 
Q 49.265625 0.734375 44.1875 -0.34375 
Q 39.109375 -1.421875 33.890625 -1.421875 
Q 20.796875 -1.421875 13.15625 6.1875 
Q 5.515625 13.8125 5.515625 26.8125 
Q 5.515625 40.234375 12.765625 48.109375 
Q 20.015625 56 32.328125 56 
Q 43.359375 56 49.78125 48.890625 
Q 56.203125 41.796875 56.203125 29.59375 
z
M 47.21875 32.234375 
Q 47.125 39.59375 43.09375 43.984375 
Q 39.0625 48.390625 32.421875 48.390625 
Q 24.90625 48.390625 20.390625 44.140625 
Q 15.875 39.890625 15.1875 32.171875 
z
" id="DejaVuSans-101"/>
      </defs>
      <g transform="translate(130.470492 322.182437)scale(0.1 -0.1)">
       <use xlink:href="#DejaVuSans-99"/>
       <use x="54.980469" xlink:href="#DejaVuSans-111"/>
       <use x="116.115234" xlink:href="#DejaVuSans-120"/>
       <use x="175.248047" xlink:href="#DejaVuSans-101"/>
       <use x="236.771484" xlink:href="#DejaVuSans-116"/>
       <use x="275.980469" xlink:href="#DejaVuSans-101"/>
       <use x="337.503906" xlink:href="#DejaVuSans-114"/>
      </g>
     </g>
    </g>
    <g id="xtick_13">
     <g id="line2d_13">
      <g>
       <use style="stroke:#000000;stroke-width:0.8;" x="156.076175" xlink:href="#mc214bc2268" y="307.584"/>
      </g>
     </g>
     <g id="text_13">
      <!-- cubical -->
      <g transform="translate(138.392582 322.182437)scale(0.1 -0.1)">
       <use xlink:href="#DejaVuSans-99"/>
       <use x="54.980469" xlink:href="#DejaVuSans-117"/>
       <use x="118.359375" xlink:href="#DejaVuSans-98"/>
       <use x="181.835938" xlink:href="#DejaVuSans-105"/>
       <use x="209.619141" xlink:href="#DejaVuSans-99"/>
       <use x="264.599609" xlink:href="#DejaVuSans-97"/>
       <use x="325.878906" xlink:href="#DejaVuSans-108"/>
      </g>
     </g>
    </g>
    <g id="xtick_14">
     <g id="line2d_14">
      <g>
       <use style="stroke:#000000;stroke-width:0.8;" x="162.749827" xlink:href="#mc214bc2268" y="307.584"/>
      </g>
     </g>
     <g id="text_14">
      <!-- diamond -->
      <defs>
       <path d="M 45.40625 46.390625 
L 45.40625 75.984375 
L 54.390625 75.984375 
L 54.390625 0 
L 45.40625 0 
L 45.40625 8.203125 
Q 42.578125 3.328125 38.25 0.953125 
Q 33.9375 -1.421875 27.875 -1.421875 
Q 17.96875 -1.421875 11.734375 6.484375 
Q 5.515625 14.40625 5.515625 27.296875 
Q 5.515625 40.1875 11.734375 48.09375 
Q 17.96875 56 27.875 56 
Q 33.9375 56 38.25 53.625 
Q 42.578125 51.265625 45.40625 46.390625 
z
M 14.796875 27.296875 
Q 14.796875 17.390625 18.875 11.75 
Q 22.953125 6.109375 30.078125 6.109375 
Q 37.203125 6.109375 41.296875 11.75 
Q 45.40625 17.390625 45.40625 27.296875 
Q 45.40625 37.203125 41.296875 42.84375 
Q 37.203125 48.484375 30.078125 48.484375 
Q 22.953125 48.484375 18.875 42.84375 
Q 14.796875 37.203125 14.796875 27.296875 
z
" id="DejaVuSans-100"/>
       <path d="M 52 44.1875 
Q 55.375 50.25 60.0625 53.125 
Q 64.75 56 71.09375 56 
Q 79.640625 56 84.28125 50.015625 
Q 88.921875 44.046875 88.921875 33.015625 
L 88.921875 0 
L 79.890625 0 
L 79.890625 32.71875 
Q 79.890625 40.578125 77.09375 44.375 
Q 74.3125 48.1875 68.609375 48.1875 
Q 61.625 48.1875 57.5625 43.546875 
Q 53.515625 38.921875 53.515625 30.90625 
L 53.515625 0 
L 44.484375 0 
L 44.484375 32.71875 
Q 44.484375 40.625 41.703125 44.40625 
Q 38.921875 48.1875 33.109375 48.1875 
Q 26.21875 48.1875 22.15625 43.53125 
Q 18.109375 38.875 18.109375 30.90625 
L 18.109375 0 
L 9.078125 0 
L 9.078125 54.6875 
L 18.109375 54.6875 
L 18.109375 46.1875 
Q 21.1875 51.21875 25.484375 53.609375 
Q 29.78125 56 35.6875 56 
Q 41.65625 56 45.828125 52.96875 
Q 50 49.953125 52 44.1875 
z
" id="DejaVuSans-109"/>
       <path d="M 54.890625 33.015625 
L 54.890625 0 
L 45.90625 0 
L 45.90625 32.71875 
Q 45.90625 40.484375 42.875 44.328125 
Q 39.84375 48.1875 33.796875 48.1875 
Q 26.515625 48.1875 22.3125 43.546875 
Q 18.109375 38.921875 18.109375 30.90625 
L 18.109375 0 
L 9.078125 0 
L 9.078125 54.6875 
L 18.109375 54.6875 
L 18.109375 46.1875 
Q 21.34375 51.125 25.703125 53.5625 
Q 30.078125 56 35.796875 56 
Q 45.21875 56 50.046875 50.171875 
Q 54.890625 44.34375 54.890625 33.015625 
z
" id="DejaVuSans-110"/>
      </defs>
      <g transform="translate(140.849827 322.182437)scale(0.1 -0.1)">
       <use xlink:href="#DejaVuSans-100"/>
       <use x="63.476562" xlink:href="#DejaVuSans-105"/>
       <use x="91.259766" xlink:href="#DejaVuSans-97"/>
       <use x="152.539062" xlink:href="#DejaVuSans-109"/>
       <use x="249.951172" xlink:href="#DejaVuSans-111"/>
       <use x="311.132812" xlink:href="#DejaVuSans-110"/>
       <use x="374.511719" xlink:href="#DejaVuSans-100"/>
      </g>
     </g>
    </g>
    <g id="xtick_15">
     <g id="line2d_15">
      <g>
       <use style="stroke:#000000;stroke-width:0.8;" x="169.423479" xlink:href="#mc214bc2268" y="307.584"/>
      </g>
     </g>
     <g id="text_15">
      <!-- dodecahedral -->
      <g transform="translate(135.197698 322.182437)scale(0.1 -0.1)">
       <use xlink:href="#DejaVuSans-100"/>
       <use x="63.476562" xlink:href="#DejaVuSans-111"/>
       <use x="124.658203" xlink:href="#DejaVuSans-100"/>
       <use x="188.134766" xlink:href="#DejaVuSans-101"/>
       <use x="249.658203" xlink:href="#DejaVuSans-99"/>
       <use x="304.638672" xlink:href="#DejaVuSans-97"/>
       <use x="365.917969" xlink:href="#DejaVuSans-104"/>
       <use x="429.296875" xlink:href="#DejaVuSans-101"/>
       <use x="490.820312" xlink:href="#DejaVuSans-100"/>
       <use x="554.296875" xlink:href="#DejaVuSans-114"/>
       <use x="595.410156" xlink:href="#DejaVuSans-97"/>
       <use x="656.689453" xlink:href="#DejaVuSans-108"/>
      </g>
     </g>
    </g>
    <g id="xtick_16">
     <g id="line2d_16">
      <g>
       <use style="stroke:#000000;stroke-width:0.8;" x="176.097132" xlink:href="#mc214bc2268" y="307.584"/>
      </g>
     </g>
     <g id="text_16">
      <!-- erdos-10000 -->
      <g transform="translate(144.417444 322.182437)scale(0.1 -0.1)">
       <use xlink:href="#DejaVuSans-101"/>
       <use x="61.523438" xlink:href="#DejaVuSans-114"/>
       <use x="102.621094" xlink:href="#DejaVuSans-100"/>
       <use x="166.097656" xlink:href="#DejaVuSans-111"/>
       <use x="227.279297" xlink:href="#DejaVuSans-115"/>
       <use x="279.378906" xlink:href="#DejaVuSans-45"/>
       <use x="315.462891" xlink:href="#DejaVuSans-49"/>
       <use x="379.085938" xlink:href="#DejaVuSans-48"/>
       <use x="442.708984" xlink:href="#DejaVuSans-48"/>
       <use x="506.332031" xlink:href="#DejaVuSans-48"/>
       <use x="569.955078" xlink:href="#DejaVuSans-48"/>
      </g>
     </g>
    </g>
    <g id="xtick_17">
     <g id="line2d_17">
      <g>
       <use style="stroke:#000000;stroke-width:0.8;" x="182.770784" xlink:href="#mc214bc2268" y="307.584"/>
      </g>
     </g>
     <g id="text_17">
      <!-- erdos-100000 -->
      <g transform="translate(147.909846 322.182437)scale(0.1 -0.1)">
       <use xlink:href="#DejaVuSans-101"/>
       <use x="61.523438" xlink:href="#DejaVuSans-114"/>
       <use x="102.621094" xlink:href="#DejaVuSans-100"/>
       <use x="166.097656" xlink:href="#DejaVuSans-111"/>
       <use x="227.279297" xlink:href="#DejaVuSans-115"/>
       <use x="279.378906" xlink:href="#DejaVuSans-45"/>
       <use x="315.462891" xlink:href="#DejaVuSans-49"/>
       <use x="379.085938" xlink:href="#DejaVuSans-48"/>
       <use x="442.708984" xlink:href="#DejaVuSans-48"/>
       <use x="506.332031" xlink:href="#DejaVuSans-48"/>
       <use x="569.955078" xlink:href="#DejaVuSans-48"/>
       <use x="633.578125" xlink:href="#DejaVuSans-48"/>
      </g>
     </g>
    </g>
    <g id="xtick_18">
     <g id="line2d_18">
      <g>
       <use style="stroke:#000000;stroke-width:0.8;" x="189.444436" xlink:href="#mc214bc2268" y="307.584"/>
      </g>
     </g>
     <g id="text_18">
      <!-- erdos-20000 -->
      <g transform="translate(157.764748 322.182437)scale(0.1 -0.1)">
       <use xlink:href="#DejaVuSans-101"/>
       <use x="61.523438" xlink:href="#DejaVuSans-114"/>
       <use x="102.621094" xlink:href="#DejaVuSans-100"/>
       <use x="166.097656" xlink:href="#DejaVuSans-111"/>
       <use x="227.279297" xlink:href="#DejaVuSans-115"/>
       <use x="279.378906" xlink:href="#DejaVuSans-45"/>
       <use x="315.462891" xlink:href="#DejaVuSans-50"/>
       <use x="379.085938" xlink:href="#DejaVuSans-48"/>
       <use x="442.708984" xlink:href="#DejaVuSans-48"/>
       <use x="506.332031" xlink:href="#DejaVuSans-48"/>
       <use x="569.955078" xlink:href="#DejaVuSans-48"/>
      </g>
     </g>
    </g>
    <g id="xtick_19">
     <g id="line2d_19">
      <g>
       <use style="stroke:#000000;stroke-width:0.8;" x="196.118088" xlink:href="#mc214bc2268" y="307.584"/>
      </g>
     </g>
     <g id="text_19">
      <!-- erdos-30000 -->
      <g transform="translate(164.4384 322.182437)scale(0.1 -0.1)">
       <use xlink:href="#DejaVuSans-101"/>
       <use x="61.523438" xlink:href="#DejaVuSans-114"/>
       <use x="102.621094" xlink:href="#DejaVuSans-100"/>
       <use x="166.097656" xlink:href="#DejaVuSans-111"/>
       <use x="227.279297" xlink:href="#DejaVuSans-115"/>
       <use x="279.378906" xlink:href="#DejaVuSans-45"/>
       <use x="315.462891" xlink:href="#DejaVuSans-51"/>
       <use x="379.085938" xlink:href="#DejaVuSans-48"/>
       <use x="442.708984" xlink:href="#DejaVuSans-48"/>
       <use x="506.332031" xlink:href="#DejaVuSans-48"/>
       <use x="569.955078" xlink:href="#DejaVuSans-48"/>
      </g>
     </g>
    </g>
    <g id="xtick_20">
     <g id="line2d_20">
      <g>
       <use style="stroke:#000000;stroke-width:0.8;" x="202.79174" xlink:href="#mc214bc2268" y="307.584"/>
      </g>
     </g>
     <g id="text_20">
      <!-- erdos-40000 -->
      <g transform="translate(171.112052 322.182437)scale(0.1 -0.1)">
       <use xlink:href="#DejaVuSans-101"/>
       <use x="61.523438" xlink:href="#DejaVuSans-114"/>
       <use x="102.621094" xlink:href="#DejaVuSans-100"/>
       <use x="166.097656" xlink:href="#DejaVuSans-111"/>
       <use x="227.279297" xlink:href="#DejaVuSans-115"/>
       <use x="279.378906" xlink:href="#DejaVuSans-45"/>
       <use x="315.462891" xlink:href="#DejaVuSans-52"/>
       <use x="379.085938" xlink:href="#DejaVuSans-48"/>
       <use x="442.708984" xlink:href="#DejaVuSans-48"/>
       <use x="506.332031" xlink:href="#DejaVuSans-48"/>
       <use x="569.955078" xlink:href="#DejaVuSans-48"/>
      </g>
     </g>
    </g>
    <g id="xtick_21">
     <g id="line2d_21">
      <g>
       <use style="stroke:#000000;stroke-width:0.8;" x="209.465392" xlink:href="#mc214bc2268" y="307.584"/>
      </g>
     </g>
     <g id="text_21">
      <!-- erdos-50000 -->
      <g transform="translate(177.785704 322.182437)scale(0.1 -0.1)">
       <use xlink:href="#DejaVuSans-101"/>
       <use x="61.523438" xlink:href="#DejaVuSans-114"/>
       <use x="102.621094" xlink:href="#DejaVuSans-100"/>
       <use x="166.097656" xlink:href="#DejaVuSans-111"/>
       <use x="227.279297" xlink:href="#DejaVuSans-115"/>
       <use x="279.378906" xlink:href="#DejaVuSans-45"/>
       <use x="315.462891" xlink:href="#DejaVuSans-53"/>
       <use x="379.085938" xlink:href="#DejaVuSans-48"/>
       <use x="442.708984" xlink:href="#DejaVuSans-48"/>
       <use x="506.332031" xlink:href="#DejaVuSans-48"/>
       <use x="569.955078" xlink:href="#DejaVuSans-48"/>
      </g>
     </g>
    </g>
    <g id="xtick_22">
     <g id="line2d_22">
      <g>
       <use style="stroke:#000000;stroke-width:0.8;" x="216.139044" xlink:href="#mc214bc2268" y="307.584"/>
      </g>
     </g>
     <g id="text_22">
      <!-- erdos-60000 -->
      <g transform="translate(184.459356 322.182437)scale(0.1 -0.1)">
       <use xlink:href="#DejaVuSans-101"/>
       <use x="61.523438" xlink:href="#DejaVuSans-114"/>
       <use x="102.621094" xlink:href="#DejaVuSans-100"/>
       <use x="166.097656" xlink:href="#DejaVuSans-111"/>
       <use x="227.279297" xlink:href="#DejaVuSans-115"/>
       <use x="279.378906" xlink:href="#DejaVuSans-45"/>
       <use x="315.462891" xlink:href="#DejaVuSans-54"/>
       <use x="379.085938" xlink:href="#DejaVuSans-48"/>
       <use x="442.708984" xlink:href="#DejaVuSans-48"/>
       <use x="506.332031" xlink:href="#DejaVuSans-48"/>
       <use x="569.955078" xlink:href="#DejaVuSans-48"/>
      </g>
     </g>
    </g>
    <g id="xtick_23">
     <g id="line2d_23">
      <g>
       <use style="stroke:#000000;stroke-width:0.8;" x="222.812696" xlink:href="#mc214bc2268" y="307.584"/>
      </g>
     </g>
     <g id="text_23">
      <!-- erdos-70000 -->
      <g transform="translate(191.133008 322.182437)scale(0.1 -0.1)">
       <use xlink:href="#DejaVuSans-101"/>
       <use x="61.523438" xlink:href="#DejaVuSans-114"/>
       <use x="102.621094" xlink:href="#DejaVuSans-100"/>
       <use x="166.097656" xlink:href="#DejaVuSans-111"/>
       <use x="227.279297" xlink:href="#DejaVuSans-115"/>
       <use x="279.378906" xlink:href="#DejaVuSans-45"/>
       <use x="315.462891" xlink:href="#DejaVuSans-55"/>
       <use x="379.085938" xlink:href="#DejaVuSans-48"/>
       <use x="442.708984" xlink:href="#DejaVuSans-48"/>
       <use x="506.332031" xlink:href="#DejaVuSans-48"/>
       <use x="569.955078" xlink:href="#DejaVuSans-48"/>
      </g>
     </g>
    </g>
    <g id="xtick_24">
     <g id="line2d_24">
      <g>
       <use style="stroke:#000000;stroke-width:0.8;" x="229.486348" xlink:href="#mc214bc2268" y="307.584"/>
      </g>
     </g>
     <g id="text_24">
      <!-- erdos-80000 -->
      <g transform="translate(197.80666 322.182437)scale(0.1 -0.1)">
       <use xlink:href="#DejaVuSans-101"/>
       <use x="61.523438" xlink:href="#DejaVuSans-114"/>
       <use x="102.621094" xlink:href="#DejaVuSans-100"/>
       <use x="166.097656" xlink:href="#DejaVuSans-111"/>
       <use x="227.279297" xlink:href="#DejaVuSans-115"/>
       <use x="279.378906" xlink:href="#DejaVuSans-45"/>
       <use x="315.462891" xlink:href="#DejaVuSans-56"/>
       <use x="379.085938" xlink:href="#DejaVuSans-48"/>
       <use x="442.708984" xlink:href="#DejaVuSans-48"/>
       <use x="506.332031" xlink:href="#DejaVuSans-48"/>
       <use x="569.955078" xlink:href="#DejaVuSans-48"/>
      </g>
     </g>
    </g>
    <g id="xtick_25">
     <g id="line2d_25">
      <g>
       <use style="stroke:#000000;stroke-width:0.8;" x="236.16" xlink:href="#mc214bc2268" y="307.584"/>
      </g>
     </g>
     <g id="text_25">
      <!-- erdos-90000 -->
      <g transform="translate(204.480313 322.182437)scale(0.1 -0.1)">
       <use xlink:href="#DejaVuSans-101"/>
       <use x="61.523438" xlink:href="#DejaVuSans-114"/>
       <use x="102.621094" xlink:href="#DejaVuSans-100"/>
       <use x="166.097656" xlink:href="#DejaVuSans-111"/>
       <use x="227.279297" xlink:href="#DejaVuSans-115"/>
       <use x="279.378906" xlink:href="#DejaVuSans-45"/>
       <use x="315.462891" xlink:href="#DejaVuSans-57"/>
       <use x="379.085938" xlink:href="#DejaVuSans-48"/>
       <use x="442.708984" xlink:href="#DejaVuSans-48"/>
       <use x="506.332031" xlink:href="#DejaVuSans-48"/>
       <use x="569.955078" xlink:href="#DejaVuSans-48"/>
      </g>
     </g>
    </g>
    <g id="xtick_26">
     <g id="line2d_26">
      <g>
       <use style="stroke:#000000;stroke-width:0.8;" x="242.833652" xlink:href="#mc214bc2268" y="307.584"/>
      </g>
     </g>
     <g id="text_26">
      <!-- folkman -->
      <defs>
       <path d="M 37.109375 75.984375 
L 37.109375 68.5 
L 28.515625 68.5 
Q 23.6875 68.5 21.796875 66.546875 
Q 19.921875 64.59375 19.921875 59.515625 
L 19.921875 54.6875 
L 34.71875 54.6875 
L 34.71875 47.703125 
L 19.921875 47.703125 
L 19.921875 0 
L 10.890625 0 
L 10.890625 47.703125 
L 2.296875 47.703125 
L 2.296875 54.6875 
L 10.890625 54.6875 
L 10.890625 58.5 
Q 10.890625 67.625 15.140625 71.796875 
Q 19.390625 75.984375 28.609375 75.984375 
z
" id="DejaVuSans-102"/>
       <path d="M 9.078125 75.984375 
L 18.109375 75.984375 
L 18.109375 31.109375 
L 44.921875 54.6875 
L 56.390625 54.6875 
L 27.390625 29.109375 
L 57.625 0 
L 45.90625 0 
L 18.109375 26.703125 
L 18.109375 0 
L 9.078125 0 
z
" id="DejaVuSans-107"/>
      </defs>
      <g transform="translate(222.626621 322.182437)scale(0.1 -0.1)">
       <use xlink:href="#DejaVuSans-102"/>
       <use x="35.205078" xlink:href="#DejaVuSans-111"/>
       <use x="96.386719" xlink:href="#DejaVuSans-108"/>
       <use x="124.169922" xlink:href="#DejaVuSans-107"/>
       <use x="182.080078" xlink:href="#DejaVuSans-109"/>
       <use x="279.492188" xlink:href="#DejaVuSans-97"/>
       <use x="340.771484" xlink:href="#DejaVuSans-110"/>
      </g>
     </g>
    </g>
    <g id="xtick_27">
     <g id="line2d_27">
      <g>
       <use style="stroke:#000000;stroke-width:0.8;" x="249.507304" xlink:href="#mc214bc2268" y="307.584"/>
      </g>
     </g>
     <g id="text_27">
      <!-- franklin -->
      <g transform="translate(230.616679 322.182437)scale(0.1 -0.1)">
       <use xlink:href="#DejaVuSans-102"/>
       <use x="35.205078" xlink:href="#DejaVuSans-114"/>
       <use x="76.318359" xlink:href="#DejaVuSans-97"/>
       <use x="137.597656" xlink:href="#DejaVuSans-110"/>
       <use x="200.976562" xlink:href="#DejaVuSans-107"/>
       <use x="258.886719" xlink:href="#DejaVuSans-108"/>
       <use x="286.669922" xlink:href="#DejaVuSans-105"/>
       <use x="314.453125" xlink:href="#DejaVuSans-110"/>
      </g>
     </g>
    </g>
    <g id="xtick_28">
     <g id="line2d_28">
      <g>
       <use style="stroke:#000000;stroke-width:0.8;" x="256.180956" xlink:href="#mc214bc2268" y="307.584"/>
      </g>
     </g>
     <g id="text_28">
      <!-- frucht -->
      <g transform="translate(241.318456 322.182437)scale(0.1 -0.1)">
       <use xlink:href="#DejaVuSans-102"/>
       <use x="35.205078" xlink:href="#DejaVuSans-114"/>
       <use x="76.318359" xlink:href="#DejaVuSans-117"/>
       <use x="139.697266" xlink:href="#DejaVuSans-99"/>
       <use x="194.677734" xlink:href="#DejaVuSans-104"/>
       <use x="258.056641" xlink:href="#DejaVuSans-116"/>
      </g>
     </g>
    </g>
    <g id="xtick_29">
     <g id="line2d_29">
      <g>
       <use style="stroke:#000000;stroke-width:0.8;" x="262.854608" xlink:href="#mc214bc2268" y="307.584"/>
      </g>
     </g>
     <g id="text_29">
      <!-- grotzsch -->
      <defs>
       <path d="M 45.40625 27.984375 
Q 45.40625 37.75 41.375 43.109375 
Q 37.359375 48.484375 30.078125 48.484375 
Q 22.859375 48.484375 18.828125 43.109375 
Q 14.796875 37.75 14.796875 27.984375 
Q 14.796875 18.265625 18.828125 12.890625 
Q 22.859375 7.515625 30.078125 7.515625 
Q 37.359375 7.515625 41.375 12.890625 
Q 45.40625 18.265625 45.40625 27.984375 
z
M 54.390625 6.78125 
Q 54.390625 -7.171875 48.1875 -13.984375 
Q 42 -20.796875 29.203125 -20.796875 
Q 24.46875 -20.796875 20.265625 -20.09375 
Q 16.0625 -19.390625 12.109375 -17.921875 
L 12.109375 -9.1875 
Q 16.0625 -11.328125 19.921875 -12.34375 
Q 23.78125 -13.375 27.78125 -13.375 
Q 36.625 -13.375 41.015625 -8.765625 
Q 45.40625 -4.15625 45.40625 5.171875 
L 45.40625 9.625 
Q 42.625 4.78125 38.28125 2.390625 
Q 33.9375 0 27.875 0 
Q 17.828125 0 11.671875 7.65625 
Q 5.515625 15.328125 5.515625 27.984375 
Q 5.515625 40.671875 11.671875 48.328125 
Q 17.828125 56 27.875 56 
Q 33.9375 56 38.28125 53.609375 
Q 42.625 51.21875 45.40625 46.390625 
L 45.40625 54.6875 
L 54.390625 54.6875 
z
" id="DejaVuSans-103"/>
       <path d="M 5.515625 54.6875 
L 48.1875 54.6875 
L 48.1875 46.484375 
L 14.40625 7.171875 
L 48.1875 7.171875 
L 48.1875 0 
L 4.296875 0 
L 4.296875 8.203125 
L 38.09375 47.515625 
L 5.515625 47.515625 
z
" id="DejaVuSans-122"/>
      </defs>
      <g transform="translate(241.460077 322.182437)scale(0.1 -0.1)">
       <use xlink:href="#DejaVuSans-103"/>
       <use x="63.476562" xlink:href="#DejaVuSans-114"/>
       <use x="104.558594" xlink:href="#DejaVuSans-111"/>
       <use x="165.740234" xlink:href="#DejaVuSans-116"/>
       <use x="204.949219" xlink:href="#DejaVuSans-122"/>
       <use x="257.439453" xlink:href="#DejaVuSans-115"/>
       <use x="309.539062" xlink:href="#DejaVuSans-99"/>
       <use x="364.519531" xlink:href="#DejaVuSans-104"/>
      </g>
     </g>
    </g>
    <g id="xtick_30">
     <g id="line2d_30">
      <g>
       <use style="stroke:#000000;stroke-width:0.8;" x="269.52826" xlink:href="#mc214bc2268" y="307.584"/>
      </g>
     </g>
     <g id="text_30">
      <!-- heawood -->
      <defs>
       <path d="M 4.203125 54.6875 
L 13.1875 54.6875 
L 24.421875 12.015625 
L 35.59375 54.6875 
L 46.1875 54.6875 
L 57.421875 12.015625 
L 68.609375 54.6875 
L 77.59375 54.6875 
L 63.28125 0 
L 52.6875 0 
L 40.921875 44.828125 
L 29.109375 0 
L 18.5 0 
z
" id="DejaVuSans-119"/>
      </defs>
      <g transform="translate(246.836854 322.182437)scale(0.1 -0.1)">
       <use xlink:href="#DejaVuSans-104"/>
       <use x="63.378906" xlink:href="#DejaVuSans-101"/>
       <use x="124.902344" xlink:href="#DejaVuSans-97"/>
       <use x="186.181641" xlink:href="#DejaVuSans-119"/>
       <use x="267.96875" xlink:href="#DejaVuSans-111"/>
       <use x="329.150391" xlink:href="#DejaVuSans-111"/>
       <use x="390.332031" xlink:href="#DejaVuSans-100"/>
      </g>
     </g>
    </g>
    <g id="xtick_31">
     <g id="line2d_31">
      <g>
       <use style="stroke:#000000;stroke-width:0.8;" x="276.201912" xlink:href="#mc214bc2268" y="307.584"/>
      </g>
     </g>
     <g id="text_31">
      <!-- herschel -->
      <g transform="translate(254.91285 322.182437)scale(0.1 -0.1)">
       <use xlink:href="#DejaVuSans-104"/>
       <use x="63.378906" xlink:href="#DejaVuSans-101"/>
       <use x="124.902344" xlink:href="#DejaVuSans-114"/>
       <use x="166.015625" xlink:href="#DejaVuSans-115"/>
       <use x="218.115234" xlink:href="#DejaVuSans-99"/>
       <use x="273.095703" xlink:href="#DejaVuSans-104"/>
       <use x="336.474609" xlink:href="#DejaVuSans-101"/>
       <use x="397.998047" xlink:href="#DejaVuSans-108"/>
      </g>
     </g>
    </g>
    <g id="xtick_32">
     <g id="line2d_32">
      <g>
       <use style="stroke:#000000;stroke-width:0.8;" x="282.875564" xlink:href="#mc214bc2268" y="307.584"/>
      </g>
     </g>
     <g id="text_32">
      <!-- house -->
      <g transform="translate(267.797439 322.182437)scale(0.1 -0.1)">
       <use xlink:href="#DejaVuSans-104"/>
       <use x="63.378906" xlink:href="#DejaVuSans-111"/>
       <use x="124.560547" xlink:href="#DejaVuSans-117"/>
       <use x="187.939453" xlink:href="#DejaVuSans-115"/>
       <use x="240.039062" xlink:href="#DejaVuSans-101"/>
      </g>
     </g>
    </g>
    <g id="xtick_33">
     <g id="line2d_33">
      <g>
       <use style="stroke:#000000;stroke-width:0.8;" x="289.549216" xlink:href="#mc214bc2268" y="307.584"/>
      </g>
     </g>
     <g id="text_33">
      <!-- housex -->
      <g transform="translate(271.512498 322.182437)scale(0.1 -0.1)">
       <use xlink:href="#DejaVuSans-104"/>
       <use x="63.378906" xlink:href="#DejaVuSans-111"/>
       <use x="124.560547" xlink:href="#DejaVuSans-117"/>
       <use x="187.939453" xlink:href="#DejaVuSans-115"/>
       <use x="240.039062" xlink:href="#DejaVuSans-101"/>
       <use x="301.546875" xlink:href="#DejaVuSans-120"/>
      </g>
     </g>
    </g>
    <g id="xtick_34">
     <g id="line2d_34">
      <g>
       <use style="stroke:#000000;stroke-width:0.8;" x="296.222868" xlink:href="#mc214bc2268" y="307.584"/>
      </g>
     </g>
     <g id="text_34">
      <!-- icosahedral -->
      <g transform="translate(267.428337 322.182437)scale(0.1 -0.1)">
       <use xlink:href="#DejaVuSans-105"/>
       <use x="27.783203" xlink:href="#DejaVuSans-99"/>
       <use x="82.763672" xlink:href="#DejaVuSans-111"/>
       <use x="143.945312" xlink:href="#DejaVuSans-115"/>
       <use x="196.044922" xlink:href="#DejaVuSans-97"/>
       <use x="257.324219" xlink:href="#DejaVuSans-104"/>
       <use x="320.703125" xlink:href="#DejaVuSans-101"/>
       <use x="382.226562" xlink:href="#DejaVuSans-100"/>
       <use x="445.703125" xlink:href="#DejaVuSans-114"/>
       <use x="486.816406" xlink:href="#DejaVuSans-97"/>
       <use x="548.095703" xlink:href="#DejaVuSans-108"/>
      </g>
     </g>
    </g>
    <g id="xtick_35">
     <g id="line2d_35">
      <g>
       <use style="stroke:#000000;stroke-width:0.8;" x="302.896521" xlink:href="#mc214bc2268" y="307.584"/>
      </g>
     </g>
     <g id="text_35">
      <!-- krackhardt_kite -->
      <defs>
       <path d="M 50.984375 -16.609375 
L 50.984375 -23.578125 
L -0.984375 -23.578125 
L -0.984375 -16.609375 
z
" id="DejaVuSans-95"/>
      </defs>
      <g transform="translate(263.994177 322.182437)scale(0.1 -0.1)">
       <use xlink:href="#DejaVuSans-107"/>
       <use x="57.910156" xlink:href="#DejaVuSans-114"/>
       <use x="99.023438" xlink:href="#DejaVuSans-97"/>
       <use x="160.302734" xlink:href="#DejaVuSans-99"/>
       <use x="215.283203" xlink:href="#DejaVuSans-107"/>
       <use x="273.193359" xlink:href="#DejaVuSans-104"/>
       <use x="336.572266" xlink:href="#DejaVuSans-97"/>
       <use x="397.851562" xlink:href="#DejaVuSans-114"/>
       <use x="438.949219" xlink:href="#DejaVuSans-100"/>
       <use x="502.425781" xlink:href="#DejaVuSans-116"/>
       <use x="541.634766" xlink:href="#DejaVuSans-95"/>
       <use x="591.634766" xlink:href="#DejaVuSans-107"/>
       <use x="649.544922" xlink:href="#DejaVuSans-105"/>
       <use x="677.328125" xlink:href="#DejaVuSans-116"/>
       <use x="716.537109" xlink:href="#DejaVuSans-101"/>
      </g>
     </g>
    </g>
    <g id="xtick_36">
     <g id="line2d_36">
      <g>
       <use style="stroke:#000000;stroke-width:0.8;" x="309.570173" xlink:href="#mc214bc2268" y="307.584"/>
      </g>
     </g>
     <g id="text_36">
      <!-- levi -->
      <g transform="translate(300.75611 322.182437)scale(0.1 -0.1)">
       <use xlink:href="#DejaVuSans-108"/>
       <use x="27.783203" xlink:href="#DejaVuSans-101"/>
       <use x="89.306641" xlink:href="#DejaVuSans-118"/>
       <use x="148.486328" xlink:href="#DejaVuSans-105"/>
      </g>
     </g>
    </g>
    <g id="xtick_37">
     <g id="line2d_37">
      <g>
       <use style="stroke:#000000;stroke-width:0.8;" x="316.243825" xlink:href="#mc214bc2268" y="307.584"/>
      </g>
     </g>
     <g id="text_37">
      <!-- mcgee -->
      <g transform="translate(299.29695 322.182437)scale(0.1 -0.1)">
       <use xlink:href="#DejaVuSans-109"/>
       <use x="97.412109" xlink:href="#DejaVuSans-99"/>
       <use x="152.392578" xlink:href="#DejaVuSans-103"/>
       <use x="215.869141" xlink:href="#DejaVuSans-101"/>
       <use x="277.392578" xlink:href="#DejaVuSans-101"/>
      </g>
     </g>
    </g>
    <g id="xtick_38">
     <g id="line2d_38">
      <g>
       <use style="stroke:#000000;stroke-width:0.8;" x="322.917477" xlink:href="#mc214bc2268" y="307.584"/>
      </g>
     </g>
     <g id="text_38">
      <!-- meredith -->
      <g transform="translate(300.147945 322.182437)scale(0.1 -0.1)">
       <use xlink:href="#DejaVuSans-109"/>
       <use x="97.412109" xlink:href="#DejaVuSans-101"/>
       <use x="158.935547" xlink:href="#DejaVuSans-114"/>
       <use x="200.017578" xlink:href="#DejaVuSans-101"/>
       <use x="261.541016" xlink:href="#DejaVuSans-100"/>
       <use x="325.017578" xlink:href="#DejaVuSans-105"/>
       <use x="352.800781" xlink:href="#DejaVuSans-116"/>
       <use x="392.009766" xlink:href="#DejaVuSans-104"/>
      </g>
     </g>
    </g>
    <g id="xtick_39">
     <g id="line2d_39">
      <g>
       <use style="stroke:#000000;stroke-width:0.8;" x="329.591129" xlink:href="#mc214bc2268" y="307.584"/>
      </g>
     </g>
     <g id="text_39">
      <!-- nonline -->
      <g transform="translate(311.170816 322.182437)scale(0.1 -0.1)">
       <use xlink:href="#DejaVuSans-110"/>
       <use x="63.378906" xlink:href="#DejaVuSans-111"/>
       <use x="124.560547" xlink:href="#DejaVuSans-110"/>
       <use x="187.939453" xlink:href="#DejaVuSans-108"/>
       <use x="215.722656" xlink:href="#DejaVuSans-105"/>
       <use x="243.505859" xlink:href="#DejaVuSans-110"/>
       <use x="306.884766" xlink:href="#DejaVuSans-101"/>
      </g>
     </g>
    </g>
    <g id="xtick_40">
     <g id="line2d_40">
      <g>
       <use style="stroke:#000000;stroke-width:0.8;" x="336.264781" xlink:href="#mc214bc2268" y="307.584"/>
      </g>
     </g>
     <g id="text_40">
      <!-- noperfectmatching -->
      <defs>
       <path d="M 18.109375 8.203125 
L 18.109375 -20.796875 
L 9.078125 -20.796875 
L 9.078125 54.6875 
L 18.109375 54.6875 
L 18.109375 46.390625 
Q 20.953125 51.265625 25.265625 53.625 
Q 29.59375 56 35.59375 56 
Q 45.5625 56 51.78125 48.09375 
Q 58.015625 40.1875 58.015625 27.296875 
Q 58.015625 14.40625 51.78125 6.484375 
Q 45.5625 -1.421875 35.59375 -1.421875 
Q 29.59375 -1.421875 25.265625 0.953125 
Q 20.953125 3.328125 18.109375 8.203125 
z
M 48.6875 27.296875 
Q 48.6875 37.203125 44.609375 42.84375 
Q 40.53125 48.484375 33.40625 48.484375 
Q 26.265625 48.484375 22.1875 42.84375 
Q 18.109375 37.203125 18.109375 27.296875 
Q 18.109375 17.390625 22.1875 11.75 
Q 26.265625 6.109375 33.40625 6.109375 
Q 40.53125 6.109375 44.609375 11.75 
Q 48.6875 17.390625 48.6875 27.296875 
z
" id="DejaVuSans-112"/>
      </defs>
      <g transform="translate(288.639781 322.182437)scale(0.1 -0.1)">
       <use xlink:href="#DejaVuSans-110"/>
       <use x="63.378906" xlink:href="#DejaVuSans-111"/>
       <use x="124.560547" xlink:href="#DejaVuSans-112"/>
       <use x="188.037109" xlink:href="#DejaVuSans-101"/>
       <use x="249.560547" xlink:href="#DejaVuSans-114"/>
       <use x="290.673828" xlink:href="#DejaVuSans-102"/>
       <use x="325.878906" xlink:href="#DejaVuSans-101"/>
       <use x="387.402344" xlink:href="#DejaVuSans-99"/>
       <use x="442.382812" xlink:href="#DejaVuSans-116"/>
       <use x="481.591797" xlink:href="#DejaVuSans-109"/>
       <use x="579.003906" xlink:href="#DejaVuSans-97"/>
       <use x="640.283203" xlink:href="#DejaVuSans-116"/>
       <use x="679.492188" xlink:href="#DejaVuSans-99"/>
       <use x="734.472656" xlink:href="#DejaVuSans-104"/>
       <use x="797.851562" xlink:href="#DejaVuSans-105"/>
       <use x="825.634766" xlink:href="#DejaVuSans-110"/>
       <use x="889.013672" xlink:href="#DejaVuSans-103"/>
      </g>
     </g>
    </g>
    <g id="xtick_41">
     <g id="line2d_41">
      <g>
       <use style="stroke:#000000;stroke-width:0.8;" x="342.938433" xlink:href="#mc214bc2268" y="307.584"/>
      </g>
     </g>
     <g id="text_41">
      <!-- octahedral -->
      <g transform="translate(316.177495 322.182437)scale(0.1 -0.1)">
       <use xlink:href="#DejaVuSans-111"/>
       <use x="61.181641" xlink:href="#DejaVuSans-99"/>
       <use x="116.162109" xlink:href="#DejaVuSans-116"/>
       <use x="155.371094" xlink:href="#DejaVuSans-97"/>
       <use x="216.650391" xlink:href="#DejaVuSans-104"/>
       <use x="280.029297" xlink:href="#DejaVuSans-101"/>
       <use x="341.552734" xlink:href="#DejaVuSans-100"/>
       <use x="405.029297" xlink:href="#DejaVuSans-114"/>
       <use x="446.142578" xlink:href="#DejaVuSans-97"/>
       <use x="507.421875" xlink:href="#DejaVuSans-108"/>
      </g>
     </g>
    </g>
    <g id="xtick_42">
     <g id="line2d_42">
      <g>
       <use style="stroke:#000000;stroke-width:0.8;" x="349.612085" xlink:href="#mc214bc2268" y="307.584"/>
      </g>
     </g>
     <g id="text_42">
      <!-- petersen -->
      <g transform="translate(327.419116 322.182437)scale(0.1 -0.1)">
       <use xlink:href="#DejaVuSans-112"/>
       <use x="63.476562" xlink:href="#DejaVuSans-101"/>
       <use x="125" xlink:href="#DejaVuSans-116"/>
       <use x="164.208984" xlink:href="#DejaVuSans-101"/>
       <use x="225.732422" xlink:href="#DejaVuSans-114"/>
       <use x="266.845703" xlink:href="#DejaVuSans-115"/>
       <use x="318.945312" xlink:href="#DejaVuSans-101"/>
       <use x="380.46875" xlink:href="#DejaVuSans-110"/>
      </g>
     </g>
    </g>
    <g id="xtick_43">
     <g id="line2d_43">
      <g>
       <use style="stroke:#000000;stroke-width:0.8;" x="356.285737" xlink:href="#mc214bc2268" y="307.584"/>
      </g>
     </g>
     <g id="text_43">
      <!-- robertson -->
      <g transform="translate(332.073237 322.182437)scale(0.1 -0.1)">
       <use xlink:href="#DejaVuSans-114"/>
       <use x="41.082031" xlink:href="#DejaVuSans-111"/>
       <use x="102.263672" xlink:href="#DejaVuSans-98"/>
       <use x="165.740234" xlink:href="#DejaVuSans-101"/>
       <use x="227.263672" xlink:href="#DejaVuSans-114"/>
       <use x="268.376953" xlink:href="#DejaVuSans-116"/>
       <use x="307.585938" xlink:href="#DejaVuSans-115"/>
       <use x="359.685547" xlink:href="#DejaVuSans-111"/>
       <use x="420.867188" xlink:href="#DejaVuSans-110"/>
      </g>
     </g>
    </g>
    <g id="xtick_44">
     <g id="line2d_44">
      <g>
       <use style="stroke:#000000;stroke-width:0.8;" x="362.959389" xlink:href="#mc214bc2268" y="307.584"/>
      </g>
     </g>
     <g id="text_44">
      <!-- smallestcyclicgroup -->
      <defs>
       <path d="M 32.171875 -5.078125 
Q 28.375 -14.84375 24.75 -17.8125 
Q 21.140625 -20.796875 15.09375 -20.796875 
L 7.90625 -20.796875 
L 7.90625 -13.28125 
L 13.1875 -13.28125 
Q 16.890625 -13.28125 18.9375 -11.515625 
Q 21 -9.765625 23.484375 -3.21875 
L 25.09375 0.875 
L 2.984375 54.6875 
L 12.5 54.6875 
L 29.59375 11.921875 
L 46.6875 54.6875 
L 56.203125 54.6875 
z
" id="DejaVuSans-121"/>
      </defs>
      <g transform="translate(313.38517 322.182437)scale(0.1 -0.1)">
       <use xlink:href="#DejaVuSans-115"/>
       <use x="52.099609" xlink:href="#DejaVuSans-109"/>
       <use x="149.511719" xlink:href="#DejaVuSans-97"/>
       <use x="210.791016" xlink:href="#DejaVuSans-108"/>
       <use x="238.574219" xlink:href="#DejaVuSans-108"/>
       <use x="266.357422" xlink:href="#DejaVuSans-101"/>
       <use x="327.880859" xlink:href="#DejaVuSans-115"/>
       <use x="379.980469" xlink:href="#DejaVuSans-116"/>
       <use x="419.189453" xlink:href="#DejaVuSans-99"/>
       <use x="474.169922" xlink:href="#DejaVuSans-121"/>
       <use x="533.349609" xlink:href="#DejaVuSans-99"/>
       <use x="588.330078" xlink:href="#DejaVuSans-108"/>
       <use x="616.113281" xlink:href="#DejaVuSans-105"/>
       <use x="643.896484" xlink:href="#DejaVuSans-99"/>
       <use x="698.876953" xlink:href="#DejaVuSans-103"/>
       <use x="762.353516" xlink:href="#DejaVuSans-114"/>
       <use x="803.435547" xlink:href="#DejaVuSans-111"/>
       <use x="864.617188" xlink:href="#DejaVuSans-117"/>
       <use x="927.996094" xlink:href="#DejaVuSans-112"/>
      </g>
     </g>
    </g>
    <g id="xtick_45">
     <g id="line2d_45">
      <g>
       <use style="stroke:#000000;stroke-width:0.8;" x="369.633041" xlink:href="#mc214bc2268" y="307.584"/>
      </g>
     </g>
     <g id="text_45">
      <!-- tetrahedral -->
      <g transform="translate(341.58851 322.182437)scale(0.1 -0.1)">
       <use xlink:href="#DejaVuSans-116"/>
       <use x="39.208984" xlink:href="#DejaVuSans-101"/>
       <use x="100.732422" xlink:href="#DejaVuSans-116"/>
       <use x="139.941406" xlink:href="#DejaVuSans-114"/>
       <use x="181.054688" xlink:href="#DejaVuSans-97"/>
       <use x="242.333984" xlink:href="#DejaVuSans-104"/>
       <use x="305.712891" xlink:href="#DejaVuSans-101"/>
       <use x="367.236328" xlink:href="#DejaVuSans-100"/>
       <use x="430.712891" xlink:href="#DejaVuSans-114"/>
       <use x="471.826172" xlink:href="#DejaVuSans-97"/>
       <use x="533.105469" xlink:href="#DejaVuSans-108"/>
      </g>
     </g>
    </g>
    <g id="xtick_46">
     <g id="line2d_46">
      <g>
       <use style="stroke:#000000;stroke-width:0.8;" x="376.306693" xlink:href="#mc214bc2268" y="307.584"/>
      </g>
     </g>
     <g id="text_46">
      <!-- thomassen -->
      <g transform="translate(348.729349 322.182437)scale(0.1 -0.1)">
       <use xlink:href="#DejaVuSans-116"/>
       <use x="39.208984" xlink:href="#DejaVuSans-104"/>
       <use x="102.587891" xlink:href="#DejaVuSans-111"/>
       <use x="163.769531" xlink:href="#DejaVuSans-109"/>
       <use x="261.181641" xlink:href="#DejaVuSans-97"/>
       <use x="322.460938" xlink:href="#DejaVuSans-115"/>
       <use x="374.560547" xlink:href="#DejaVuSans-115"/>
       <use x="426.660156" xlink:href="#DejaVuSans-101"/>
       <use x="488.183594" xlink:href="#DejaVuSans-110"/>
      </g>
     </g>
    </g>
    <g id="xtick_47">
     <g id="line2d_47">
      <g>
       <use style="stroke:#000000;stroke-width:0.8;" x="382.980345" xlink:href="#mc214bc2268" y="307.584"/>
      </g>
     </g>
     <g id="text_47">
      <!-- tutte -->
      <g transform="translate(370.854564 322.182437)scale(0.1 -0.1)">
       <use xlink:href="#DejaVuSans-116"/>
       <use x="39.208984" xlink:href="#DejaVuSans-117"/>
       <use x="102.587891" xlink:href="#DejaVuSans-116"/>
       <use x="141.796875" xlink:href="#DejaVuSans-116"/>
       <use x="181.005859" xlink:href="#DejaVuSans-101"/>
      </g>
     </g>
    </g>
    <g id="xtick_48">
     <g id="line2d_48">
      <g>
       <use style="stroke:#000000;stroke-width:0.8;" x="389.653997" xlink:href="#mc214bc2268" y="307.584"/>
      </g>
     </g>
     <g id="text_48">
      <!-- uniquely3colorable -->
      <defs>
       <path d="M 14.796875 27.296875 
Q 14.796875 17.390625 18.875 11.75 
Q 22.953125 6.109375 30.078125 6.109375 
Q 37.203125 6.109375 41.296875 11.75 
Q 45.40625 17.390625 45.40625 27.296875 
Q 45.40625 37.203125 41.296875 42.84375 
Q 37.203125 48.484375 30.078125 48.484375 
Q 22.953125 48.484375 18.875 42.84375 
Q 14.796875 37.203125 14.796875 27.296875 
z
M 45.40625 8.203125 
Q 42.578125 3.328125 38.25 0.953125 
Q 33.9375 -1.421875 27.875 -1.421875 
Q 17.96875 -1.421875 11.734375 6.484375 
Q 5.515625 14.40625 5.515625 27.296875 
Q 5.515625 40.1875 11.734375 48.09375 
Q 17.96875 56 27.875 56 
Q 33.9375 56 38.25 53.625 
Q 42.578125 51.265625 45.40625 46.390625 
L 45.40625 54.6875 
L 54.390625 54.6875 
L 54.390625 -20.796875 
L 45.40625 -20.796875 
z
" id="DejaVuSans-113"/>
      </defs>
      <g transform="translate(341.96181 322.182437)scale(0.1 -0.1)">
       <use xlink:href="#DejaVuSans-117"/>
       <use x="63.378906" xlink:href="#DejaVuSans-110"/>
       <use x="126.757812" xlink:href="#DejaVuSans-105"/>
       <use x="154.541016" xlink:href="#DejaVuSans-113"/>
       <use x="218.017578" xlink:href="#DejaVuSans-117"/>
       <use x="281.396484" xlink:href="#DejaVuSans-101"/>
       <use x="342.919922" xlink:href="#DejaVuSans-108"/>
       <use x="370.703125" xlink:href="#DejaVuSans-121"/>
       <use x="429.882812" xlink:href="#DejaVuSans-51"/>
       <use x="493.505859" xlink:href="#DejaVuSans-99"/>
       <use x="548.486328" xlink:href="#DejaVuSans-111"/>
       <use x="609.667969" xlink:href="#DejaVuSans-108"/>
       <use x="637.451172" xlink:href="#DejaVuSans-111"/>
       <use x="698.632812" xlink:href="#DejaVuSans-114"/>
       <use x="739.746094" xlink:href="#DejaVuSans-97"/>
       <use x="801.025391" xlink:href="#DejaVuSans-98"/>
       <use x="864.501953" xlink:href="#DejaVuSans-108"/>
       <use x="892.285156" xlink:href="#DejaVuSans-101"/>
      </g>
     </g>
    </g>
    <g id="xtick_49">
     <g id="line2d_49">
      <g>
       <use style="stroke:#000000;stroke-width:0.8;" x="396.327649" xlink:href="#mc214bc2268" y="307.584"/>
      </g>
     </g>
     <g id="text_49">
      <!-- walther -->
      <g transform="translate(377.524524 322.182437)scale(0.1 -0.1)">
       <use xlink:href="#DejaVuSans-119"/>
       <use x="81.787109" xlink:href="#DejaVuSans-97"/>
       <use x="143.066406" xlink:href="#DejaVuSans-108"/>
       <use x="170.849609" xlink:href="#DejaVuSans-116"/>
       <use x="210.058594" xlink:href="#DejaVuSans-104"/>
       <use x="273.4375" xlink:href="#DejaVuSans-101"/>
       <use x="334.960938" xlink:href="#DejaVuSans-114"/>
      </g>
     </g>
    </g>
    <g id="text_50">
     <!-- filenames -->
     <g transform="translate(211.760781 336.138688)scale(0.1 -0.1)">
      <use xlink:href="#DejaVuSans-102"/>
      <use x="35.205078" xlink:href="#DejaVuSans-105"/>
      <use x="62.988281" xlink:href="#DejaVuSans-108"/>
      <use x="90.771484" xlink:href="#DejaVuSans-101"/>
      <use x="152.294922" xlink:href="#DejaVuSans-110"/>
      <use x="215.673828" xlink:href="#DejaVuSans-97"/>
      <use x="276.953125" xlink:href="#DejaVuSans-109"/>
      <use x="374.365234" xlink:href="#DejaVuSans-101"/>
      <use x="435.888672" xlink:href="#DejaVuSans-115"/>
     </g>
    </g>
   </g>
   <g id="matplotlib.axis_2">
    <g id="ytick_1">
     <g id="line2d_50">
      <defs>
       <path d="M 0 0 
L -3.5 0 
" id="m93fb2603ab" style="stroke:#000000;stroke-width:0.8;"/>
      </defs>
      <g>
       <use style="stroke:#000000;stroke-width:0.8;" x="57.6" xlink:href="#m93fb2603ab" y="293.338762"/>
      </g>
     </g>
     <g id="text_51">
      <!-- 0 -->
      <g transform="translate(44.2375 297.137981)scale(0.1 -0.1)">
       <use xlink:href="#DejaVuSans-48"/>
      </g>
     </g>
    </g>
    <g id="ytick_2">
     <g id="line2d_51">
      <g>
       <use style="stroke:#000000;stroke-width:0.8;" x="57.6" xlink:href="#m93fb2603ab" y="239.918209"/>
      </g>
     </g>
     <g id="text_52">
      <!-- 10 -->
      <g transform="translate(37.875 243.717428)scale(0.1 -0.1)">
       <use xlink:href="#DejaVuSans-49"/>
       <use x="63.623047" xlink:href="#DejaVuSans-48"/>
      </g>
     </g>
    </g>
    <g id="ytick_3">
     <g id="line2d_52">
      <g>
       <use style="stroke:#000000;stroke-width:0.8;" x="57.6" xlink:href="#m93fb2603ab" y="186.497657"/>
      </g>
     </g>
     <g id="text_53">
      <!-- 20 -->
      <g transform="translate(37.875 190.296875)scale(0.1 -0.1)">
       <use xlink:href="#DejaVuSans-50"/>
       <use x="63.623047" xlink:href="#DejaVuSans-48"/>
      </g>
     </g>
    </g>
    <g id="ytick_4">
     <g id="line2d_53">
      <g>
       <use style="stroke:#000000;stroke-width:0.8;" x="57.6" xlink:href="#m93fb2603ab" y="133.077104"/>
      </g>
     </g>
     <g id="text_54">
      <!-- 30 -->
      <g transform="translate(37.875 136.876323)scale(0.1 -0.1)">
       <use xlink:href="#DejaVuSans-51"/>
       <use x="63.623047" xlink:href="#DejaVuSans-48"/>
      </g>
     </g>
    </g>
    <g id="ytick_5">
     <g id="line2d_54">
      <g>
       <use style="stroke:#000000;stroke-width:0.8;" x="57.6" xlink:href="#m93fb2603ab" y="79.656551"/>
      </g>
     </g>
     <g id="text_55">
      <!-- 40 -->
      <g transform="translate(37.875 83.45577)scale(0.1 -0.1)">
       <use xlink:href="#DejaVuSans-52"/>
       <use x="63.623047" xlink:href="#DejaVuSans-48"/>
      </g>
     </g>
    </g>
    <g id="text_56">
     <!-- time taken (in seconds) -->
     <defs>
      <path id="DejaVuSans-32"/>
      <path d="M 31 75.875 
Q 24.46875 64.65625 21.28125 53.65625 
Q 18.109375 42.671875 18.109375 31.390625 
Q 18.109375 20.125 21.3125 9.0625 
Q 24.515625 -2 31 -13.1875 
L 23.1875 -13.1875 
Q 15.875 -1.703125 12.234375 9.375 
Q 8.59375 20.453125 8.59375 31.390625 
Q 8.59375 42.28125 12.203125 53.3125 
Q 15.828125 64.359375 23.1875 75.875 
z
" id="DejaVuSans-40"/>
      <path d="M 8.015625 75.875 
L 15.828125 75.875 
Q 23.140625 64.359375 26.78125 53.3125 
Q 30.421875 42.28125 30.421875 31.390625 
Q 30.421875 20.453125 26.78125 9.375 
Q 23.140625 -1.703125 15.828125 -13.1875 
L 8.015625 -13.1875 
Q 14.5 -2 17.703125 9.0625 
Q 20.90625 20.125 20.90625 31.390625 
Q 20.90625 42.671875 17.703125 53.65625 
Q 14.5 64.65625 8.015625 75.875 
z
" id="DejaVuSans-41"/>
     </defs>
     <g transform="translate(31.795312 233.650656)rotate(-90)scale(0.1 -0.1)">
      <use xlink:href="#DejaVuSans-116"/>
      <use x="39.208984" xlink:href="#DejaVuSans-105"/>
      <use x="66.992188" xlink:href="#DejaVuSans-109"/>
      <use x="164.404297" xlink:href="#DejaVuSans-101"/>
      <use x="225.927734" xlink:href="#DejaVuSans-32"/>
      <use x="257.714844" xlink:href="#DejaVuSans-116"/>
      <use x="296.923828" xlink:href="#DejaVuSans-97"/>
      <use x="358.203125" xlink:href="#DejaVuSans-107"/>
      <use x="416.066406" xlink:href="#DejaVuSans-101"/>
      <use x="477.589844" xlink:href="#DejaVuSans-110"/>
      <use x="540.96875" xlink:href="#DejaVuSans-32"/>
      <use x="572.755859" xlink:href="#DejaVuSans-40"/>
      <use x="611.769531" xlink:href="#DejaVuSans-105"/>
      <use x="639.552734" xlink:href="#DejaVuSans-110"/>
      <use x="702.931641" xlink:href="#DejaVuSans-32"/>
      <use x="734.71875" xlink:href="#DejaVuSans-115"/>
      <use x="786.818359" xlink:href="#DejaVuSans-101"/>
      <use x="848.341797" xlink:href="#DejaVuSans-99"/>
      <use x="903.322266" xlink:href="#DejaVuSans-111"/>
      <use x="964.503906" xlink:href="#DejaVuSans-110"/>
      <use x="1027.882812" xlink:href="#DejaVuSans-100"/>
      <use x="1091.359375" xlink:href="#DejaVuSans-115"/>
      <use x="1143.458984" xlink:href="#DejaVuSans-41"/>
     </g>
    </g>
   </g>
   <g id="line2d_55">
    <path clip-path="url(#p7f613f7ac4)" d="M 75.992351 242.153539 
L 82.666003 190.342334 
L 89.339655 268.180139 
L 96.013307 268.115821 
L 102.686959 260.918416 
L 109.360611 96.693434 
L 116.034263 78.838148 
L 122.707915 247.244304 
L 129.381567 53.611361 
L 136.055219 287.502246 
L 142.728871 286.191413 
L 149.402523 287.364475 
L 156.076175 286.646396 
L 162.749827 287.028246 
L 169.423479 285.054944 
L 176.097132 233.305813 
L 182.770784 278.583845 
L 189.444436 286.213422 
L 196.118088 284.211327 
L 202.79174 283.657462 
L 209.465392 281.931124 
L 216.139044 281.632823 
L 222.812696 280.266913 
L 229.486348 151.388067 
L 236.16 278.270747 
L 242.833652 287.140696 
L 249.507304 284.889607 
L 256.180956 287.203946 
L 262.854608 288.923046 
L 269.52826 284.941425 
L 276.201912 288.058253 
L 282.875564 285.606244 
L 289.549216 286.624173 
L 296.222868 286.66926 
L 302.896521 281.89031 
L 309.570173 283.459432 
L 316.243825 283.935623 
L 322.917477 288.055299 
L 329.591129 287.591191 
L 336.264781 284.152457 
L 342.938433 287.272324 
L 349.612085 287.86214 
L 356.285737 285.636266 
L 362.959389 288.491253 
L 369.633041 288.148389 
L 376.306693 283.078704 
L 382.980345 285.392882 
L 389.653997 288.61459 
L 396.327649 285.83654 
" style="fill:none;stroke:#1f77b4;stroke-linecap:square;stroke-width:1.5;"/>
   </g>
   <g id="line2d_56">
    <path clip-path="url(#p7f613f7ac4)" d="M 75.992351 227.27303 
L 82.666003 282.862404 
L 89.339655 276.421381 
L 96.013307 273.414231 
L 102.686959 264.817476 
L 109.360611 262.563289 
L 116.034263 249.938356 
L 122.707915 238.921382 
L 129.381567 239.39362 
L 136.055219 293.311158 
L 142.728871 293.325584 
L 149.402523 293.322102 
L 156.076175 293.322376 
L 162.749827 293.3054 
L 169.423479 293.322392 
L 176.097132 291.925997 
L 182.770784 278.046595 
L 189.444436 290.856378 
L 196.118088 289.528408 
L 202.79174 288.184192 
L 209.465392 286.460813 
L 216.139044 285.213977 
L 222.812696 283.678937 
L 229.486348 282.172371 
L 236.16 280.915706 
L 242.833652 293.303066 
L 249.507304 293.322523 
L 256.180956 293.324816 
L 262.854608 293.326575 
L 269.52826 293.316644 
L 276.201912 293.316786 
L 282.875564 293.327765 
L 289.549216 293.327898 
L 296.222868 293.325492 
L 302.896521 293.324567 
L 309.570173 293.317898 
L 316.243825 293.32087 
L 322.917477 293.312201 
L 329.591129 293.317993 
L 336.264781 293.323217 
L 342.938433 293.327605 
L 349.612085 293.327231 
L 356.285737 293.322999 
L 362.959389 293.326988 
L 369.633041 293.328512 
L 376.306693 293.315546 
L 382.980345 293.315855 
L 389.653997 293.326891 
L 396.327649 293.322853 
" style="fill:none;stroke:#ff7f0e;stroke-linecap:square;stroke-width:1.5;"/>
   </g>
   <g id="line2d_57">
    <path clip-path="url(#p7f613f7ac4)" d="M 75.992351 253.014365 
L 82.666003 286.952388 
L 89.339655 282.734195 
L 96.013307 281.300921 
L 102.686959 276.482067 
L 109.360611 274.255338 
L 116.034263 266.855256 
L 122.707915 260.454459 
L 129.381567 260.174321 
L 136.055219 293.326138 
L 142.728871 293.255136 
L 149.402523 293.274047 
L 156.076175 293.311112 
L 162.749827 293.272816 
L 169.423479 293.230906 
L 176.097132 292.346235 
L 182.770784 283.965966 
L 189.444436 291.689344 
L 196.118088 290.857164 
L 202.79174 289.719488 
L 209.465392 288.979725 
L 216.139044 288.117245 
L 222.812696 286.85137 
L 229.486348 285.975594 
L 236.16 284.237609 
L 242.833652 293.260357 
L 249.507304 293.207929 
L 256.180956 293.296248 
L 262.854608 293.282203 
L 269.52826 293.309242 
L 276.201912 293.097741 
L 282.875564 293.261551 
L 289.549216 293.28548 
L 296.222868 293.256704 
L 302.896521 293.158553 
L 309.570173 293.31144 
L 316.243825 293.308782 
L 322.917477 293.268488 
L 329.591129 293.282946 
L 336.264781 293.249209 
L 342.938433 293.297414 
L 349.612085 293.320856 
L 356.285737 293.259402 
L 362.959389 293.325419 
L 369.633041 293.323605 
L 376.306693 293.310153 
L 382.980345 293.306614 
L 389.653997 293.328515 
L 396.327649 293.311905 
" style="fill:none;stroke:#2ca02c;stroke-linecap:square;stroke-width:1.5;"/>
   </g>
   <g id="patch_3">
    <path d="M 57.6 307.584 
L 57.6 41.472 
" style="fill:none;stroke:#000000;stroke-linecap:square;stroke-linejoin:miter;stroke-width:0.8;"/>
   </g>
   <g id="patch_4">
    <path d="M 414.72 307.584 
L 414.72 41.472 
" style="fill:none;stroke:#000000;stroke-linecap:square;stroke-linejoin:miter;stroke-width:0.8;"/>
   </g>
   <g id="patch_5">
    <path d="M 57.6 307.584 
L 414.72 307.584 
" style="fill:none;stroke:#000000;stroke-linecap:square;stroke-linejoin:miter;stroke-width:0.8;"/>
   </g>
   <g id="patch_6">
    <path d="M 57.6 41.472 
L 414.72 41.472 
" style="fill:none;stroke:#000000;stroke-linecap:square;stroke-linejoin:miter;stroke-width:0.8;"/>
   </g>
   <g id="legend_1">
    <g id="patch_7">
     <path d="M 315.348125 93.506375 
L 407.72 93.506375 
Q 409.72 93.506375 409.72 91.506375 
L 409.72 48.472 
Q 409.72 46.472 407.72 46.472 
L 315.348125 46.472 
Q 313.348125 46.472 313.348125 48.472 
L 313.348125 91.506375 
Q 313.348125 93.506375 315.348125 93.506375 
z
" style="fill:#ffffff;opacity:0.8;stroke:#cccccc;stroke-linejoin:miter;"/>
    </g>
    <g id="line2d_58">
     <path d="M 317.348125 54.570438 
L 337.348125 54.570438 
" style="fill:none;stroke:#1f77b4;stroke-linecap:square;stroke-width:1.5;"/>
    </g>
    <g id="line2d_59"/>
    <g id="text_57">
     <!-- pr-mpi-base -->
     <g transform="translate(345.348125 58.070438)scale(0.1 -0.1)">
      <use xlink:href="#DejaVuSans-112"/>
      <use x="63.476562" xlink:href="#DejaVuSans-114"/>
      <use x="104.496094" xlink:href="#DejaVuSans-45"/>
      <use x="140.580078" xlink:href="#DejaVuSans-109"/>
      <use x="237.992188" xlink:href="#DejaVuSans-112"/>
      <use x="301.46875" xlink:href="#DejaVuSans-105"/>
      <use x="329.251953" xlink:href="#DejaVuSans-45"/>
      <use x="365.335938" xlink:href="#DejaVuSans-98"/>
      <use x="428.8125" xlink:href="#DejaVuSans-97"/>
      <use x="490.091797" xlink:href="#DejaVuSans-115"/>
      <use x="542.191406" xlink:href="#DejaVuSans-101"/>
     </g>
    </g>
    <g id="line2d_60">
     <path d="M 317.348125 69.248563 
L 337.348125 69.248563 
" style="fill:none;stroke:#ff7f0e;stroke-linecap:square;stroke-width:1.5;"/>
    </g>
    <g id="line2d_61"/>
    <g id="text_58">
     <!-- pr-mpi -->
     <g transform="translate(345.348125 72.748563)scale(0.1 -0.1)">
      <use xlink:href="#DejaVuSans-112"/>
      <use x="63.476562" xlink:href="#DejaVuSans-114"/>
      <use x="104.496094" xlink:href="#DejaVuSans-45"/>
      <use x="140.580078" xlink:href="#DejaVuSans-109"/>
      <use x="237.992188" xlink:href="#DejaVuSans-112"/>
      <use x="301.46875" xlink:href="#DejaVuSans-105"/>
     </g>
    </g>
    <g id="line2d_62">
     <path d="M 317.348125 83.926688 
L 337.348125 83.926688 
" style="fill:none;stroke:#2ca02c;stroke-linecap:square;stroke-width:1.5;"/>
    </g>
    <g id="line2d_63"/>
    <g id="text_59">
     <!-- pr-cpp -->
     <g transform="translate(345.348125 87.426688)scale(0.1 -0.1)">
      <use xlink:href="#DejaVuSans-112"/>
      <use x="63.476562" xlink:href="#DejaVuSans-114"/>
      <use x="104.496094" xlink:href="#DejaVuSans-45"/>
      <use x="140.580078" xlink:href="#DejaVuSans-99"/>
      <use x="195.560547" xlink:href="#DejaVuSans-112"/>
      <use x="259.037109" xlink:href="#DejaVuSans-112"/>
     </g>
    </g>
   </g>
  </g>
 </g>
 <defs>
  <clipPath id="p7f613f7ac4">
   <rect height="266.112" width="357.12" x="57.6" y="41.472"/>
  </clipPath>
 </defs>
</svg>
